<svg xmlns="http://www.w3.org/2000/svg" width="47.201" height="42.138" viewBox="0 3.432 11.8 10.535"><path d="M3.505 3.435c.476-.007.902.118 1.323.265.256.09.51.185.774.252.474.116.934.074 1.388-.101.322-.125.645-.252.983-.33 1.022-.233 1.935-.002 2.757.628.227.168.43.363.61.58.074.084.07.104-.026.164-.85.518-1.349 1.275-1.434 2.269-.083.928.202 1.74.845 2.417.28.295.61.514.983.675.105.04.11.057.066.16-.417.963-.97 1.851-1.658 2.644-.236.268-.506.51-.825.687-.5.278-1.013.282-1.532.06-.214-.09-.42-.2-.642-.274a3.004 3.004 0 0 0-2.12.09c-.181.077-.361.158-.546.226-.671.25-1.275.096-1.825-.34a4.726 4.726 0 0 1-.863-.926 9.246 9.246 0 0 1-1.351-2.566 7.763 7.763 0 0 1-.4-2.044C-.03 7.205.03 6.447.336 5.733c.485-1.111 1.305-1.87 2.482-2.211.23-.067.466-.097.687-.087" fill="#fff" fill-rule="evenodd" data-name="Path 13676"/></svg>