<svg width="22" height="14" viewBox="0 0 22 14" fill="none" xmlns="http://www.w3.org/2000/svg">
<path fill-rule="evenodd" clip-rule="evenodd" d="M0 6.75101C0 6.55209 0.0790176 6.36133 0.21967 6.22068C0.360322 6.08002 0.551088 6.00101 0.75 6.00101L18.4395 6.00101L13.719 1.28201C13.5782 1.14118 13.4991 0.95017 13.4991 0.751006C13.4991 0.551843 13.5782 0.360836 13.719 0.220006C13.8598 0.0791759 14.0508 5.91278e-05 14.25 5.91278e-05C14.4492 5.91278e-05 14.6402 0.0791759 14.781 0.220006L20.781 6.22001C20.8508 6.28967 20.9063 6.37244 20.9441 6.46356C20.9819 6.55467 21.0013 6.65236 21.0013 6.75101C21.0013 6.84966 20.9819 6.94734 20.9441 7.03846C20.9063 7.12957 20.8508 7.21234 20.781 7.28201L14.781 13.282C14.6402 13.4228 14.4492 13.502 14.25 13.502C14.0508 13.502 13.8598 13.4228 13.719 13.282C13.5782 13.1412 13.4991 12.9502 13.4991 12.751C13.4991 12.5518 13.5782 12.3608 13.719 12.22L18.4395 7.50101L0.75 7.50101C0.551088 7.50101 0.360322 7.42199 0.21967 7.28134C0.0790176 7.14068 0 6.94992 0 6.75101Z" fill="white"/>
</svg>
