<svg xmlns="http://www.w3.org/2000/svg" width="80.038" height="84" viewBox="2 2 20.01 21"><path d="M13 10a.965.965 0 0 1-.712-.288A.965.965 0 0 1 12 9V7h-2a.967.967 0 0 1-.712-.287A.968.968 0 0 1 9 6c0-.283.096-.521.288-.713A.967.967 0 0 1 10 5h2V3c0-.283.096-.521.288-.713A.967.967 0 0 1 13 2a.97.97 0 0 1 .713.287A.97.97 0 0 1 14 3v2h2a.97.97 0 0 1 .713.287A.97.97 0 0 1 17 6a.97.97 0 0 1-.287.713A.97.97 0 0 1 16 7h-2v2c0 .283-.096.52-.287.712A.968.968 0 0 1 13 10ZM8 23c-.55 0-1.02-.196-1.412-.587A1.927 1.927 0 0 1 6 21c0-.55.196-1.021.588-1.413A1.925 1.925 0 0 1 8 19c.55 0 1.02.196 1.412.587.392.392.588.863.588 1.413s-.196 1.021-.588 1.413A1.925 1.925 0 0 1 8 23Zm10 0c-.55 0-1.02-.196-1.412-.587A1.927 1.927 0 0 1 16 21c0-.55.196-1.021.588-1.413A1.925 1.925 0 0 1 18 19c.55 0 1.021.196 1.413.587.391.392.587.863.587 1.413s-.196 1.021-.587 1.413A1.928 1.928 0 0 1 18 23ZM8 18c-.767 0-1.346-.33-1.737-.988-.392-.658-.396-1.312-.013-1.962L7.6 12.6 4 5H3a.965.965 0 0 1-.712-.288A.965.965 0 0 1 2 4c0-.283.096-.521.288-.713A.967.967 0 0 1 3 3h1.65c.183 0 .358.05.525.15.167.1.292.242.375.425L9.525 12h7.025l3.6-6.5c.083-.15.2-.271.35-.363A.943.943 0 0 1 21 5c.383 0 .671.162.863.487a.939.939 0 0 1 .012.988L18.3 12.95c-.183.333-.43.592-.738.775A1.942 1.942 0 0 1 16.55 14H9.1L8 16h11c.283 0 .52.096.712.287.192.192.288.43.288.713s-.096.52-.288.712A.965.965 0 0 1 19 18H8Z" fill="#fff" fill-rule="evenodd" data-name="add_shopping_cart_FILL0_wght400_GRAD0_opsz24"/></svg>