<svg width="32" height="37" viewBox="0 0 32 37" fill="none" xmlns="http://www.w3.org/2000/svg">
<path fill-rule="evenodd" clip-rule="evenodd" d="M29.9702 4.12775C30.4503 4.60126 30.72 5.24349 30.72 5.91314V13.4879H28.16V5.91314H23.04V8.43808H20.48V5.91314H10.24V8.43808H7.68V5.91314H2.56V31.1625H7.68V33.6874H2.56C1.88105 33.6874 1.2299 33.4214 0.749807 32.9479C0.269713 32.4743 0 31.8321 0 31.1625V5.91314C0 5.24349 0.269713 4.60126 0.749807 4.12775C1.2299 3.65423 1.88105 3.38821 2.56 3.38821H7.68V0.863281H10.24V3.38821H20.48V0.863281H23.04V3.38821H28.16C28.839 3.38821 29.4901 3.65423 29.9702 4.12775ZM25.0229 23.5095L21.7602 17.2755L18.6882 23.5095L11.5202 24.5081L16.6402 29.361L15.3602 36.2124L21.7602 32.978L28.1602 36.2124L26.8802 29.361L32.0002 24.5081L25.0229 23.5095Z" fill="#0F2941"/>
</svg>
