<svg xmlns="http://www.w3.org/2000/svg" width="19.5" height="17.499" viewBox="0 0 19.5 17.499">
  <path id="Eye-slash" d="M20.74,8.272a.75.75,0,0,0-1.295.758Zm-.647,7.076-.647-.379ZM9.165,18.778A.75.75,0,1,0,8.676,20.2ZM3.907,15.349l.647-.379Zm0-6.7.647.379ZM13.916,9.968a.75.75,0,1,0,1.035-1.085ZM8.743,14.916a.75.75,0,1,0,1.14-.975Zm7.563-2.855a.75.75,0,1,0-1.5,0ZM12,14.923a.75.75,0,0,0,0,1.5Zm8.41-10.4A.75.75,0,0,0,19.34,3.474ZM4.153,18.9a.75.75,0,1,0,1.069,1.052ZM19.445,9.03a5.883,5.883,0,0,1,0,5.94l1.295.758a7.383,7.383,0,0,0,0-7.455Zm0,5.94A8.607,8.607,0,0,1,9.165,18.778L8.676,20.2A10.107,10.107,0,0,0,20.74,15.727Zm-14.891,0a5.883,5.883,0,0,1,0-5.94L3.26,8.272a7.383,7.383,0,0,0,0,7.455Zm1.9,2.269a8.728,8.728,0,0,1-1.9-2.269l-1.295.758a10.228,10.228,0,0,0,2.224,2.657ZM4.555,9.03a8.627,8.627,0,0,1,12.569-2.6l.893-1.205A10.127,10.127,0,0,0,3.26,8.272Zm4.639,3.03A2.835,2.835,0,0,1,12,9.2V7.7a4.335,4.335,0,0,0-4.306,4.364ZM12,9.2a2.766,2.766,0,0,1,1.917.771l1.035-1.085A4.266,4.266,0,0,0,12,7.7ZM9.883,13.941a2.882,2.882,0,0,1-.69-1.88h-1.5a4.382,4.382,0,0,0,1.05,2.855Zm4.923-1.88A2.835,2.835,0,0,1,12,14.923v1.5a4.335,4.335,0,0,0,4.307-4.363ZM19.34,3.474,4.153,18.9l1.069,1.052L20.41,4.526Z" transform="translate(-2.25 -3.25)" fill="#8a8a8f"/>
</svg>
