<svg xmlns="http://www.w3.org/2000/svg" width="19.5" height="17.5" viewBox="0 0 19.5 17.5">
  <path id="Eye" d="M3.907,8.651,3.26,8.272h0Zm16.185,0,.647-.379h0Zm0,6.7-.647-.379Zm-16.185,0,.647-.379ZM4.555,9.03a8.616,8.616,0,0,1,14.891,0l1.295-.758a10.116,10.116,0,0,0-17.48,0Zm14.891,0a5.883,5.883,0,0,1,0,5.94l1.295.758a7.383,7.383,0,0,0,0-7.455Zm0,5.94a8.616,8.616,0,0,1-14.891,0l-1.295.758a10.116,10.116,0,0,0,17.48,0Zm-14.891,0a5.883,5.883,0,0,1,0-5.94L3.26,8.272a7.383,7.383,0,0,0,0,7.455Zm10.252-2.909A2.835,2.835,0,0,1,12,14.923v1.5a4.335,4.335,0,0,0,4.307-4.363ZM12,14.923a2.834,2.834,0,0,1-2.806-2.863h-1.5A4.334,4.334,0,0,0,12,16.423ZM9.193,12.061A2.835,2.835,0,0,1,12,9.2V7.7a4.335,4.335,0,0,0-4.306,4.364ZM12,9.2a2.836,2.836,0,0,1,2.807,2.864h1.5A4.336,4.336,0,0,0,12,7.7Z" transform="translate(-2.25 -3.25)" fill="#8a8a8f"/>
</svg>
