<svg width="39" height="25" viewBox="0 0 39 25" fill="none" xmlns="http://www.w3.org/2000/svg">
<path d="M0.558013 14.7056C0.251918 14.7056 0.0478516 14.5043 0.0478516 14.2024V2.9551C0.0478516 1.7475 1.01416 0.794434 2.23854 0.794434H8.80456C9.11066 0.794434 9.31473 0.995701 9.31473 1.2976C9.31473 1.5995 9.11066 1.80077 8.80456 1.80077H2.18451C1.52431 1.80077 1.01415 2.30394 1.01415 2.9551V14.2024C1.06217 14.451 0.810091 14.7056 0.558013 14.7056Z" fill="#0F2941"/>
<path d="M22.0448 24.4969H2.19068C0.966305 24.4969 0 23.5439 0 22.3363V16.8132C0 16.5113 0.204067 16.3101 0.510162 16.3101C0.816257 16.3101 1.02032 16.5113 1.02032 16.8132V22.3363C1.02032 22.9874 1.53048 23.4906 2.19068 23.4906H22.0448C22.3509 23.4906 22.555 23.6919 22.555 23.9938C22.555 24.2957 22.3029 24.4969 22.0448 24.4969Z" fill="#0F2941"/>
<path d="M36.8093 24.4967H26.9843C26.6782 24.4967 26.4741 24.2954 26.4741 23.9935C26.4741 23.6916 26.6782 23.4903 26.9843 23.4903H36.8093C37.4695 23.4903 37.9797 22.9872 37.9797 22.336V2.9551C37.9797 2.30394 37.4695 1.80077 36.8093 1.80077H13.39C13.0839 1.80077 12.8799 1.5995 12.8799 1.2976C12.8799 0.995701 13.0839 0.794434 13.39 0.794434H36.8093C38.0337 0.794434 39 1.7475 39 2.9551V22.336C39 23.4903 37.9797 24.4967 36.8093 24.4967Z" fill="#0F2941"/>
<path d="M0.558105 3.95557H38.4899V11.6393H0.558105V3.95557Z" fill="#0F2941"/>
<path d="M12.7783 21.1291H7.22659C6.81847 21.1291 6.46436 20.7798 6.46436 20.3773C6.46436 19.9747 6.81847 19.6255 7.22659 19.6255H12.7243C13.1324 19.6255 13.4865 19.9747 13.4865 20.3773C13.4865 20.7798 13.1804 21.1291 12.7723 21.1291H12.7783Z" fill="#0F2941"/>
<path d="M5.39583 21.1291H3.40921C3.00108 21.1291 2.64697 20.7798 2.64697 20.3773C2.64697 19.9747 3.00108 19.6255 3.40921 19.6255H5.39583C5.80395 19.6255 6.15806 19.9747 6.15806 20.3773C6.15806 20.7798 5.80395 21.1291 5.39583 21.1291Z" fill="#0F2941"/>
<path d="M24.8956 24.0472C24.8956 24.4083 24.6015 24.6983 24.2354 24.6983C23.8693 24.6983 23.5752 24.4083 23.5752 24.0472C23.5752 23.6861 23.8693 23.396 24.2354 23.396C24.6015 23.396 24.8956 23.6861 24.8956 24.0472Z" fill="#0F2941"/>
</svg>
