<svg xmlns="http://www.w3.org/2000/svg" width="72.536" height="56.715" viewBox="3959.832 -6893.225 18.134 14.179"><g data-name="CompositeLayer"><path d="M3967.345-6884.76c-.37-.345-.781-.644-1.163-.978-.487-.427-.535-.898-.118-1.39.234-.276.53-.497.791-.747 1.08-1.034 1.267-2.561.452-3.808-.184-.28-.428-.514-.725-.873.827.116 1.472-.068 2.063-.623-1.384 0-2.7-.01-4.02.004a4.59 4.59 0 0 0-1.965.485c-1.816.883-2.488 3.088-1.407 4.677.634.931 1.55 1.251 2.611 1.234.126-.002.438-.165.326.209-.196.646.018 1.18.468 1.777-.246 0-.372-.014-.494 0-1.195.138-2.381.308-3.364 1.127-1.379 1.15-1.271 3.02.235 3.982 1.633 1.038 4.783.772 6.238-.529 1.492-1.333 1.526-3.172.072-4.547m-4.252-3.337a4.154 4.154 0 0 1-.765-2.92c.074-.724.444-1.246 1.119-1.477.677-.235 1.27-.04 1.754.495.711.78.963 1.747 1.027 2.585.012 1.151-.34 1.727-1.105 2.01-.75.28-1.51.037-2.03-.693m4.108 6.493c-.074.714-.478 1.18-1.087 1.466a3.44 3.44 0 0 1-1.618.32c-.793-.035-1.565-.165-2.234-.65-1.25-.913-1.133-2.636.23-3.34.803-.42 1.676-.535 2.555-.492.951.05 2.256 1.724 2.154 2.696" fill="#fff" fill-rule="evenodd" data-name="Path 13673"/><path d="M3975.223-6888.836v-1.632h-1.644v-1.127h1.644v-1.63h1.095v1.63h1.648v1.127h-1.648v1.632h-1.095Z" fill="#fff" fill-rule="evenodd" data-name="Path 13674"/></g></svg>