<svg width="40" height="36" viewBox="0 0 40 36" fill="none" xmlns="http://www.w3.org/2000/svg">
<path d="M39.2734 18.3544L21.337 0.530655C20.625 -0.176885 19.4732 -0.176885 18.7717 0.530655L0.950527 18.3544C0.186164 19.1244 0.730641 20.425 1.8196 20.425H6.92931V32.7133C6.92931 34.2428 8.17533 35.4914 9.72499 35.4914H13.484C14.6567 35.4914 15.6095 34.5446 15.6095 33.3792V25.2633C15.6095 24.0251 16.6147 23.0263 17.8607 23.0263H22.3632C23.6092 23.0263 24.6144 24.0251 24.6144 25.2633V33.3792C24.6144 34.5446 25.5672 35.4914 26.7399 35.4914H30.1743C31.7135 35.4914 32.97 34.2532 32.97 32.7133V20.425H38.4148C39.5037 20.425 40.0482 19.114 39.2838 18.3544H39.2734Z" fill="#0F2941"/>
</svg>
