<svg xmlns="http://www.w3.org/2000/svg" width="19.51" height="19.51" viewBox="0 0 19.51 19.51">
  <g id="Info" transform="translate(-2.245 -2.245)">
    <path id="Path_24686" data-name="Path 24686" d="M3.353,8.95a7.511,7.511,0,0,1,5.6-5.6,13.354,13.354,0,0,1,6.1,0,7.511,7.511,0,0,1,5.6,5.6,13.354,13.354,0,0,1,0,6.1,7.511,7.511,0,0,1-5.6,5.6,13.354,13.354,0,0,1-6.1,0,7.511,7.511,0,0,1-5.6-5.6A13.354,13.354,0,0,1,3.353,8.95Z" fill="none" stroke="#ff4040" stroke-width="1.5"/>
    <path id="Path_24687" data-name="Path 24687" d="M12,15.5v-4" fill="none" stroke="#ff4040" stroke-linecap="round" stroke-linejoin="round" stroke-width="1.5"/>
    <circle id="Ellipse_821" data-name="Ellipse 821" cx="0.5" cy="0.5" r="0.5" transform="translate(11.5 8.5)" fill="none" stroke="#ff4040" stroke-linecap="round" stroke-linejoin="round" stroke-width="1"/>
  </g>
</svg>
