<svg width="428" height="306" viewBox="0 0 428 306" fill="none" xmlns="http://www.w3.org/2000/svg">
<path d="M153.683 41.7126C190.05 14.5159 231.821 30.9732 255.232 82.5813C278.319 133.473 346.385 128.53 334.243 165.123C314.882 223.469 215.158 227.166 155.331 172.822C106.381 128.354 122.289 65.1922 153.683 41.7126Z" fill="#FFEBEC"/>
<path d="M224.22 292.652H221.876C221.787 292.652 221.709 292.593 221.679 292.515L191.109 202.559C191.089 202.5 191.099 202.421 191.138 202.372C191.178 202.314 191.236 202.284 191.305 202.284H198.926C199.024 202.284 199.102 202.343 199.122 202.431L224.416 292.387C224.435 292.446 224.416 292.515 224.377 292.574C224.347 292.613 224.279 292.652 224.22 292.652ZM222.023 292.231H223.945L198.769 202.686H191.59L222.023 292.231Z" fill="#EB404D"/>
<path d="M210.126 202.686H165.462C160.117 202.686 156.115 201.313 153.575 198.596C150.525 195.34 150.711 191.358 150.721 191.103V164.102C150.721 164.092 150.721 164.083 150.721 164.073C151.202 160.16 152.908 157.276 155.782 155.481C159.813 152.971 165.462 153.088 169.493 153.618C173.848 154.197 177.3 155.383 177.329 155.393C177.418 155.422 177.467 155.501 177.467 155.589V193.417L216.796 193.839C216.913 193.839 217.001 193.937 217.001 194.045V195.791C217.011 199.596 213.922 202.686 210.126 202.686ZM151.143 164.112V191.103V191.113C151.143 191.152 150.917 195.144 153.889 198.302C156.351 200.92 160.244 202.254 165.472 202.254H210.136C213.696 202.254 216.599 199.351 216.599 195.791V194.251L177.271 193.829C177.153 193.829 177.065 193.731 177.065 193.623V155.746C176.378 155.521 173.259 154.54 169.434 154.03C165.472 153.5 159.931 153.382 156.007 155.834C153.251 157.561 151.614 160.346 151.143 164.112Z" fill="#EB404D"/>
<path d="M144.12 292.652H141.776C141.708 292.652 141.649 292.623 141.61 292.574C141.57 292.525 141.561 292.456 141.57 292.387L166.864 202.431C166.894 202.343 166.972 202.284 167.061 202.284H174.681C174.75 202.284 174.809 202.314 174.848 202.372C174.887 202.431 174.897 202.5 174.877 202.559L144.307 292.515C144.287 292.593 144.209 292.652 144.12 292.652ZM142.041 292.231H143.964L174.387 202.686H167.208L142.041 292.231Z" fill="#EB404D"/>
<path d="M192.511 238.229C192.394 238.229 192.305 238.131 192.305 238.023V230.393C192.305 225.597 188.402 221.693 183.606 221.693C178.81 221.693 174.907 225.597 174.907 230.393V238.023C174.907 238.141 174.808 238.229 174.701 238.229C174.583 238.229 174.495 238.131 174.495 238.023V230.393C174.495 225.361 178.584 221.271 183.616 221.271C188.647 221.271 192.737 225.361 192.737 230.393V238.023C192.727 238.141 192.629 238.229 192.511 238.229Z" fill="#EB404D"/>
<path d="M157.596 292.436L173.073 234.551H196.013L209.616 292.436H157.596Z" fill="white"/>
<path d="M209.616 292.651H157.596C157.528 292.651 157.469 292.622 157.429 292.573C157.39 292.524 157.38 292.455 157.39 292.396L172.867 234.511C172.886 234.423 172.975 234.354 173.073 234.354H196.013C196.111 234.354 196.189 234.423 196.219 234.511L209.822 292.396C209.832 292.455 209.822 292.524 209.783 292.573C209.744 292.622 209.675 292.651 209.616 292.651ZM157.871 292.23H209.351L195.846 234.757H173.23L157.871 292.23Z" fill="#EB404D"/>
<path d="M151.908 292.436L167.374 234.551H190.315L203.918 292.436H151.908Z" fill="white"/>
<path d="M203.918 292.651H151.908C151.839 292.651 151.78 292.622 151.741 292.573C151.702 292.524 151.692 292.455 151.702 292.396L167.178 234.511C167.198 234.423 167.286 234.354 167.384 234.354H190.324C190.423 234.354 190.501 234.423 190.53 234.511L204.134 292.396C204.144 292.455 204.134 292.524 204.094 292.573C204.045 292.622 203.987 292.651 203.918 292.651ZM152.173 292.23H203.653L190.148 234.757H167.531L152.173 292.23Z" fill="#EB404D"/>
<path d="M194.424 237.562C194.385 237.562 194.346 237.552 194.306 237.523L190.197 234.718C190.099 234.649 190.079 234.522 190.138 234.423C190.207 234.325 190.334 234.306 190.432 234.365L194.355 237.042L195.827 234.433C195.885 234.335 196.013 234.296 196.111 234.355C196.209 234.414 196.248 234.541 196.189 234.639L194.601 237.444C194.571 237.493 194.522 237.532 194.463 237.542C194.453 237.562 194.444 237.562 194.424 237.562Z" fill="#EB404D"/>
<path d="M188.059 238.229C187.941 238.229 187.853 238.131 187.853 238.023V230.393C187.853 225.597 183.949 221.693 179.153 221.693C174.357 221.693 170.454 225.597 170.454 230.393V238.023C170.454 238.141 170.356 238.229 170.248 238.229C170.13 238.229 170.042 238.131 170.042 238.023V230.393C170.042 225.361 174.132 221.271 179.163 221.271C184.194 221.271 188.284 225.361 188.284 230.393V238.023C188.265 238.141 188.176 238.229 188.059 238.229Z" fill="#EB404D"/>
<path d="M170.238 239.749C171.013 239.749 171.641 239.121 171.641 238.347C171.641 237.572 171.013 236.944 170.238 236.944C169.464 236.944 168.836 237.572 168.836 238.347C168.836 239.121 169.464 239.749 170.238 239.749Z" fill="#EB404D"/>
<path d="M188.059 239.749C188.833 239.749 189.461 239.121 189.461 238.347C189.461 237.572 188.833 236.944 188.059 236.944C187.284 236.944 186.656 237.572 186.656 238.347C186.656 239.121 187.284 239.749 188.059 239.749Z" fill="#EB404D"/>
<path d="M169.905 264.141C169.277 264.141 168.679 264.053 168.13 263.886C167.58 263.71 167.09 263.445 166.678 263.072C166.266 262.709 165.942 262.229 165.707 261.65C165.472 261.071 165.354 260.365 165.354 259.551C165.354 258.757 165.472 258.09 165.707 257.531C165.942 256.972 166.266 256.52 166.678 256.167C167.09 255.814 167.571 255.559 168.13 255.402C168.679 255.245 169.277 255.167 169.905 255.167C170.532 255.167 171.121 255.245 171.68 255.402C172.239 255.559 172.72 255.814 173.132 256.167C173.543 256.52 173.867 256.972 174.112 257.531C174.348 258.09 174.475 258.766 174.475 259.551C174.475 260.375 174.357 261.071 174.112 261.65C173.877 262.229 173.543 262.709 173.132 263.072C172.72 263.435 172.239 263.71 171.68 263.886C171.131 264.053 170.532 264.141 169.905 264.141ZM169.905 257.795C169.689 257.795 169.503 257.825 169.356 257.894C169.208 257.952 169.081 258.041 168.993 258.129C168.895 258.227 168.826 258.335 168.767 258.462C168.718 258.59 168.679 258.717 168.659 258.845C168.64 258.972 168.62 259.1 168.62 259.227C168.61 259.355 168.61 259.453 168.61 259.551C168.61 259.639 168.61 259.747 168.62 259.875C168.63 260.002 168.64 260.13 168.659 260.257C168.679 260.395 168.718 260.522 168.767 260.65C168.816 260.777 168.895 260.895 168.993 260.993C169.091 261.091 169.208 261.179 169.356 261.238C169.503 261.297 169.689 261.336 169.905 261.336C170.121 261.336 170.307 261.307 170.454 261.238C170.601 261.179 170.729 261.091 170.817 260.993C170.915 260.895 170.984 260.777 171.042 260.65C171.092 260.522 171.131 260.395 171.16 260.257C171.19 260.12 171.199 259.992 171.209 259.875C171.219 259.757 171.219 259.649 171.219 259.551C171.219 259.463 171.219 259.355 171.209 259.227C171.199 259.11 171.19 258.982 171.16 258.845C171.131 258.717 171.092 258.59 171.042 258.462C170.993 258.335 170.915 258.227 170.817 258.129C170.719 258.031 170.601 257.952 170.454 257.894C170.307 257.825 170.121 257.795 169.905 257.795ZM176.858 255.451H181.664L178.781 266.975H173.975L176.858 255.451ZM185.921 267.289C185.293 267.289 184.695 267.201 184.146 267.034C183.596 266.858 183.106 266.593 182.694 266.22C182.282 265.857 181.958 265.377 181.723 264.798C181.488 264.219 181.37 263.513 181.37 262.699C181.37 261.905 181.488 261.238 181.723 260.679C181.958 260.12 182.282 259.669 182.694 259.316C183.106 258.963 183.587 258.708 184.146 258.551C184.695 258.394 185.293 258.315 185.921 258.315C186.548 258.315 187.137 258.394 187.696 258.551C188.255 258.708 188.736 258.963 189.147 259.316C189.559 259.669 189.883 260.12 190.128 260.679C190.364 261.238 190.491 261.915 190.491 262.699C190.491 263.523 190.373 264.219 190.128 264.798C189.893 265.377 189.559 265.857 189.147 266.22C188.736 266.583 188.255 266.858 187.696 267.034C187.147 267.211 186.548 267.289 185.921 267.289ZM185.921 260.944C185.705 260.944 185.519 260.973 185.372 261.042C185.224 261.101 185.097 261.189 185.009 261.277C184.911 261.375 184.842 261.483 184.783 261.611C184.734 261.738 184.695 261.866 184.675 261.993C184.656 262.121 184.636 262.248 184.636 262.376C184.626 262.493 184.626 262.601 184.626 262.699C184.626 262.788 184.626 262.895 184.636 263.023C184.646 263.15 184.656 263.278 184.675 263.405C184.695 263.543 184.734 263.67 184.783 263.798C184.832 263.925 184.911 264.043 185.009 264.141C185.107 264.239 185.224 264.327 185.372 264.386C185.519 264.445 185.705 264.484 185.921 264.484C186.137 264.484 186.323 264.455 186.47 264.386C186.617 264.327 186.745 264.239 186.833 264.141C186.931 264.043 187 263.925 187.058 263.798C187.107 263.67 187.147 263.543 187.176 263.405C187.206 263.268 187.215 263.141 187.225 263.023C187.235 262.905 187.235 262.797 187.235 262.699C187.235 262.611 187.235 262.503 187.225 262.376C187.215 262.258 187.206 262.13 187.176 261.993C187.147 261.866 187.107 261.738 187.058 261.611C187.009 261.483 186.931 261.375 186.833 261.277C186.735 261.179 186.617 261.101 186.47 261.042C186.323 260.973 186.137 260.944 185.921 260.944Z" fill="#EB404D"/>
<path d="M145.896 227.058C145.778 227.058 145.69 226.96 145.69 226.852V217.652C145.69 211.846 140.962 207.119 135.156 207.119C129.35 207.119 124.623 211.846 124.623 217.652V226.852C124.623 226.97 124.525 227.058 124.417 227.058C124.299 227.058 124.211 226.96 124.211 226.852V217.652C124.211 211.621 129.125 206.707 135.156 206.707C141.188 206.707 146.102 211.621 146.102 217.652V226.852C146.112 226.96 146.013 227.058 145.896 227.058Z" fill="#EB404D"/>
<path d="M103.811 292.436L122.455 222.664H150.113L166.511 292.436H103.811Z" fill="white"/>
<path d="M166.511 292.652H103.811C103.742 292.652 103.683 292.622 103.644 292.573C103.605 292.524 103.595 292.455 103.605 292.397L122.249 222.625C122.269 222.536 122.357 222.468 122.455 222.468H150.103C150.201 222.468 150.279 222.536 150.309 222.625L166.707 292.397C166.717 292.455 166.707 292.524 166.668 292.573C166.629 292.622 166.57 292.652 166.511 292.652ZM104.085 292.23H166.246L149.946 222.87H122.622L104.085 292.23Z" fill="#EB404D"/>
<path d="M96.9453 292.436L115.6 222.664H143.247L159.646 292.436H96.9453Z" fill="white"/>
<path d="M159.646 292.652H96.9453C96.8767 292.652 96.8178 292.622 96.7786 292.573C96.7394 292.524 96.7296 292.455 96.7394 292.397L115.384 222.625C115.403 222.536 115.492 222.468 115.59 222.468H143.238C143.336 222.468 143.414 222.536 143.444 222.625L159.842 292.397C159.852 292.455 159.842 292.524 159.803 292.573C159.773 292.622 159.715 292.652 159.646 292.652ZM97.22 292.23H159.381L143.081 222.87H115.756L97.22 292.23Z" fill="#EB404D"/>
<path d="M148.2 226.254C148.161 226.254 148.122 226.244 148.082 226.215L143.13 222.841C143.031 222.772 143.012 222.645 143.071 222.547C143.139 222.448 143.267 222.429 143.365 222.488L148.131 225.734L149.936 222.556C149.995 222.458 150.122 222.419 150.221 222.478C150.319 222.537 150.358 222.664 150.299 222.762L148.386 226.136C148.357 226.185 148.308 226.224 148.249 226.234C148.23 226.244 148.21 226.254 148.2 226.254Z" fill="#EB404D"/>
<path d="M140.531 227.058C140.413 227.058 140.325 226.96 140.325 226.852V217.652C140.325 211.846 135.597 207.119 129.791 207.119C123.985 207.119 119.258 211.846 119.258 217.652V226.852C119.258 226.97 119.16 227.058 119.052 227.058C118.934 227.058 118.846 226.96 118.846 226.852V217.652C118.846 211.621 123.759 206.707 129.791 206.707C135.823 206.707 140.736 211.621 140.736 217.652V226.852C140.736 226.96 140.648 227.058 140.531 227.058Z" fill="#EB404D"/>
<path d="M119.052 228.922C119.983 228.922 120.739 228.166 120.739 227.235C120.739 226.303 119.983 225.548 119.052 225.548C118.12 225.548 117.365 226.303 117.365 227.235C117.365 228.166 118.12 228.922 119.052 228.922Z" fill="#EB404D"/>
<path d="M140.531 228.922C141.462 228.922 142.218 228.166 142.218 227.235C142.218 226.303 141.462 225.548 140.531 225.548C139.599 225.548 138.844 226.303 138.844 227.235C138.844 228.166 139.599 228.922 140.531 228.922Z" fill="#EB404D"/>
<path d="M117.365 234.404L102.997 287.729H153.006L141.335 234.404H117.365Z" fill="white"/>
<path d="M153.006 287.944H102.997C102.928 287.944 102.869 287.915 102.83 287.866C102.791 287.817 102.781 287.748 102.791 287.689L117.149 234.355C117.169 234.267 117.257 234.198 117.355 234.198H141.335C141.433 234.198 141.521 234.267 141.541 234.365L153.212 287.699C153.222 287.758 153.212 287.827 153.173 287.876C153.124 287.915 153.065 287.944 153.006 287.944ZM103.271 287.523H152.741L141.168 234.61H117.522L103.271 287.523Z" fill="#EB404D"/>
<path d="M203.536 196.674H169.826C163.324 196.674 158.028 191.378 158.028 184.875V162.994C158.028 162.876 158.126 162.788 158.234 162.788C158.351 162.788 158.44 162.886 158.44 162.994V184.875C158.44 191.152 163.55 196.262 169.826 196.262H203.536C203.653 196.262 203.741 196.36 203.741 196.468C203.741 196.585 203.643 196.674 203.536 196.674Z" fill="#EB404D"/>
<path d="M334.292 145.134H268.109C264.706 145.134 261.95 142.378 261.95 138.975V19.5372C261.95 16.1339 264.706 13.3779 268.109 13.3779H334.292C337.695 13.3779 340.451 16.1339 340.451 19.5372V138.975C340.441 142.378 337.685 145.134 334.292 145.134Z" fill="white"/>
<path d="M334.292 145.35H268.109C264.598 145.35 261.744 142.496 261.744 138.985V19.5371C261.744 16.0259 264.598 13.1719 268.109 13.1719H334.292C337.803 13.1719 340.657 16.0259 340.657 19.5371V138.975C340.657 142.486 337.803 145.35 334.292 145.35ZM268.109 13.5838C264.834 13.5838 262.156 16.2515 262.156 19.5371V138.975C262.156 142.251 264.824 144.928 268.109 144.928H334.292C337.567 144.928 340.245 142.261 340.245 138.975V19.5371C340.245 16.2613 337.577 13.5838 334.292 13.5838H268.109Z" fill="#EB404D"/>
<path d="M314.853 86.4447H289.441C288.264 86.4447 287.303 85.4836 287.303 84.3066V58.8949C287.303 57.718 288.264 56.7568 289.441 56.7568H314.853C316.029 56.7568 316.991 57.718 316.991 58.8949V84.3066C316.991 85.4836 316.029 86.4447 314.853 86.4447Z" fill="#FFEFD3"/>
<path d="M340.441 22.8426H261.95C261.832 22.8426 261.744 22.7445 261.744 22.6366C261.744 22.5287 261.842 22.4307 261.95 22.4307H340.441C340.559 22.4307 340.647 22.5287 340.647 22.6366C340.647 22.7445 340.559 22.8426 340.441 22.8426Z" fill="#EB404D"/>
<path d="M276.407 20.822C274.975 20.822 273.817 19.6647 273.817 18.2328C273.817 16.8009 274.975 15.6436 276.407 15.6436C277.839 15.6436 278.996 16.8009 278.996 18.2328C278.996 19.6549 277.839 20.822 276.407 20.822ZM276.407 16.0555C275.21 16.0555 274.229 17.0264 274.229 18.2328C274.229 19.4391 275.2 20.4101 276.407 20.4101C277.613 20.4101 278.584 19.4391 278.584 18.2328C278.584 17.0264 277.613 16.0555 276.407 16.0555Z" fill="#EB404D"/>
<path d="M268.943 20.822C267.511 20.822 266.354 19.6647 266.354 18.2328C266.354 16.8009 267.511 15.6436 268.943 15.6436C270.375 15.6436 271.532 16.8009 271.532 18.2328C271.542 19.6549 270.375 20.822 268.943 20.822ZM268.943 16.0555C267.746 16.0555 266.765 17.0264 266.765 18.2328C266.765 19.4391 267.736 20.4101 268.943 20.4101C270.139 20.4101 271.12 19.4391 271.12 18.2328C271.12 17.0264 270.149 16.0555 268.943 16.0555Z" fill="#EB404D"/>
<path d="M283.968 20.822C282.536 20.822 281.379 19.6647 281.379 18.2328C281.379 16.8009 282.536 15.6436 283.968 15.6436C285.4 15.6436 286.557 16.8009 286.557 18.2328C286.557 19.6549 285.4 20.822 283.968 20.822ZM283.968 16.0555C282.772 16.0555 281.791 17.0264 281.791 18.2328C281.791 19.4391 282.762 20.4101 283.968 20.4101C285.174 20.4101 286.145 19.4391 286.145 18.2328C286.145 17.0264 285.165 16.0555 283.968 16.0555Z" fill="#EB404D"/>
<path d="M284.763 88.1806C284.645 88.1806 284.557 88.0826 284.557 87.9747V54.6972C284.557 54.5795 284.655 54.4912 284.763 54.4912C284.88 54.4912 284.969 54.5893 284.969 54.6972V87.9747C284.969 88.0924 284.87 88.1806 284.763 88.1806Z" fill="#EB404D"/>
<path d="M320.365 88.1806C320.247 88.1806 320.159 88.0826 320.159 87.9747V54.6972C320.159 54.5795 320.257 54.4912 320.365 54.4912C320.482 54.4912 320.571 54.5893 320.571 54.6972V87.9747C320.571 88.0924 320.482 88.1806 320.365 88.1806Z" fill="#EB404D"/>
<path d="M325.798 103.236H276.602C273.974 103.236 271.836 101.108 271.836 98.4697C271.836 95.8412 273.964 93.7031 276.602 93.7031H325.798C328.426 93.7031 330.564 95.8314 330.564 98.4697C330.564 101.098 328.426 103.236 325.798 103.236Z" fill="#EB404D"/>
<path d="M329.819 137.475H272.572C272.454 137.475 272.366 137.377 272.366 137.269V112.789C272.366 112.671 272.464 112.583 272.572 112.583H329.819C329.937 112.583 330.025 112.681 330.025 112.789V137.269C330.035 137.387 329.937 137.475 329.819 137.475ZM272.778 137.063H329.613V112.995H272.778V137.063Z" fill="#EB404D"/>
<path d="M326.534 116.976H275.857C275.74 116.976 275.651 116.878 275.651 116.77C275.651 116.653 275.749 116.564 275.857 116.564H326.534C326.651 116.564 326.74 116.663 326.74 116.77C326.749 116.878 326.651 116.976 326.534 116.976Z" fill="#EB404D"/>
<path d="M326.534 119.429H275.857C275.74 119.429 275.651 119.33 275.651 119.223C275.651 119.105 275.749 119.017 275.857 119.017H326.534C326.651 119.017 326.74 119.115 326.74 119.223C326.749 119.33 326.651 119.429 326.534 119.429Z" fill="#EB404D"/>
<path d="M326.534 121.881H275.857C275.74 121.881 275.651 121.783 275.651 121.675C275.651 121.557 275.749 121.469 275.857 121.469H326.534C326.651 121.469 326.74 121.567 326.74 121.675C326.749 121.792 326.651 121.881 326.534 121.881Z" fill="#EB404D"/>
<path d="M326.534 124.332H275.857C275.74 124.332 275.651 124.234 275.651 124.126C275.651 124.008 275.749 123.92 275.857 123.92H326.534C326.651 123.92 326.74 124.018 326.74 124.126C326.749 124.244 326.651 124.332 326.534 124.332Z" fill="#EB404D"/>
<path d="M326.534 133.846H275.857C275.74 133.846 275.651 133.748 275.651 133.64V129.011C275.651 128.893 275.749 128.805 275.857 128.805H326.534C326.651 128.805 326.74 128.903 326.74 129.011V133.64C326.749 133.748 326.651 133.846 326.534 133.846ZM276.073 133.424H326.328V129.207H276.073V133.424Z" fill="#EB404D"/>
<path d="M315.618 63.5732V77.4021H311.41L311.214 73.5575L307.32 77.4021H288.676C288.676 74.2734 291.559 72.9494 291.559 72.9494C294.374 72.8219 297.101 71.6057 299.445 70.0855C299.67 69.9384 299.886 69.7913 300.102 69.6442C300.474 69.3892 300.828 69.1244 301.181 68.8596C301.396 68.6929 301.602 68.5261 301.808 68.3692C302.269 67.9965 302.711 67.6238 303.123 67.2609C303.328 67.0746 303.534 66.8882 303.721 66.7117C305.574 64.9855 306.702 63.5732 306.702 63.5732H315.618Z" fill="#EB404D"/>
<path d="M334.194 70.0762H330.457C330.457 70.0762 327.426 73.8619 324.092 74.0189C324.092 74.0189 322.875 74.5779 322.875 75.8921H330.702L332.34 74.2739L332.428 75.8921H334.194V70.0762Z" fill="#EB404D"/>
<path d="M279.162 70.0762V75.8823H277.397L277.309 74.2641L275.671 75.8823H267.844C267.844 74.5681 269.06 74.0189 269.06 74.0189C270.208 73.9698 271.326 73.4794 272.297 72.8616C272.415 72.7929 272.522 72.7144 272.63 72.6458C272.817 72.5183 272.993 72.3908 273.17 72.2535C273.278 72.1652 273.386 72.0868 273.484 72.0083C273.719 71.8121 273.935 71.6258 274.131 71.4394C274.239 71.3414 274.337 71.2531 274.425 71.155C275.053 70.5469 275.426 70.0762 275.426 70.0762H279.162Z" fill="#EB404D"/>
<path d="M275.426 70.0761V61.8965L280.948 64.4955L279.163 70.0761H275.426Z" fill="#EB404D"/>
<path d="M325.406 102.265H277.083C275.033 102.265 273.376 100.598 273.376 98.5579C273.376 96.5179 275.043 94.8506 277.083 94.8506H325.406C327.456 94.8506 329.113 96.5179 329.113 98.5579C329.113 100.598 327.456 102.265 325.406 102.265ZM277.093 95.0958C275.181 95.0958 273.631 96.6454 273.631 98.5579C273.631 100.47 275.181 102.02 277.093 102.02H325.406C327.318 102.02 328.868 100.47 328.868 98.5579C328.868 96.6454 327.318 95.0958 325.406 95.0958H277.093Z" fill="white"/>
<path d="M325.798 40.5155H276.602C273.974 40.5155 271.836 38.3872 271.836 35.749C271.836 33.1205 273.964 30.9824 276.602 30.9824H325.798C328.426 30.9824 330.564 33.1107 330.564 35.749C330.564 38.3774 328.426 40.5155 325.798 40.5155Z" fill="#EB404D"/>
<path d="M325.406 39.5445H277.083C275.033 39.5445 273.376 37.8772 273.376 35.8372C273.376 33.7874 275.043 32.1299 277.083 32.1299H325.406C327.456 32.1299 329.113 33.7972 329.113 35.8372C329.123 37.8772 327.456 39.5445 325.406 39.5445ZM277.093 32.3751C275.181 32.3751 273.631 33.9247 273.631 35.8372C273.631 37.7497 275.181 39.2993 277.093 39.2993H325.406C327.318 39.2993 328.868 37.7497 328.868 35.8372C328.868 33.9247 327.318 32.3751 325.406 32.3751H277.093Z" fill="white"/>
<path d="M327.063 48.5977H276.416C276.299 48.5977 276.21 48.4996 276.21 48.3918V42.87C276.21 42.7523 276.309 42.6641 276.416 42.6641H327.063C327.181 42.6641 327.269 42.7621 327.269 42.87V48.3918C327.269 48.5094 327.171 48.5977 327.063 48.5977ZM276.622 48.1858H326.857V43.076H276.622V48.1858Z" fill="#EB404D"/>
<path d="M338.538 54.9031H267.854C267.737 54.9031 267.648 54.8051 267.648 54.6972C267.648 54.5893 267.747 54.4912 267.854 54.4912H338.538C338.656 54.4912 338.744 54.5893 338.744 54.6972C338.744 54.8051 338.646 54.9031 338.538 54.9031Z" fill="#EB404D"/>
<path d="M338.538 88.1814H267.854C267.737 88.1814 267.648 88.0834 267.648 87.9755C267.648 87.8676 267.747 87.7695 267.854 87.7695H338.538C338.656 87.7695 338.744 87.8676 338.744 87.9755C338.744 88.0834 338.646 88.1814 338.538 88.1814Z" fill="#EB404D"/>
<path d="M240.246 178.697C240.246 178.697 244.541 165.878 211.646 161.465L194.846 164.103L211.646 174.058L240.246 178.697Z" fill="#C2322D"/>
<path d="M232.939 134.513L254.025 108.464C254.025 108.464 255.81 103.521 257.076 102.256C257.076 102.256 258.233 103.57 257.34 105.522L256.87 108.209L263.814 113.682L238.696 150.922C235.469 155.708 228.378 155.59 225.318 150.686L206.772 122.146L219.404 113.868L232.939 134.513Z" fill="#F6A27F"/>
<path d="M199.534 98.4602C199.534 98.4602 207.458 95.6846 212.235 101.775L224.887 118.507C224.887 118.507 222.395 121.744 218.188 124.657C212.539 128.56 206.899 127.658 206.899 127.658L199.534 98.4602Z" fill="#EB404D"/>
<path d="M186.666 75.7452C186.666 75.7452 183.802 77.5498 180.527 74.1858C177.251 70.8218 165.697 49.7646 153.212 49.7646C142.541 49.7646 137.598 64.8195 148.73 67.6735C158.312 70.1254 162.657 61.7006 170.317 70.9591C177.986 80.2175 184.979 78.815 186.666 75.7452Z" fill="#B15200"/>
<path d="M304.633 252.676L291.677 237.494L281.791 249.205L290.657 256.109L298.484 262.504L305.859 256.982L304.633 252.676Z" fill="#F6A27F"/>
<path d="M296.816 264.936L318.776 250.195C317.275 248.714 315.216 246.968 308.566 249.9L301.858 249.724C301.858 249.724 302.711 252.813 299.376 254.922C294.757 257.845 290.657 256.109 290.657 256.109L296.816 264.936Z" fill="#EB404D"/>
<path d="M233.753 286.944L231.556 267.113L216.805 271.252L220.257 281.943L223.151 291.623L232.35 291.191L233.753 286.944Z" fill="#F6A27F"/>
<path d="M220.404 292.701L246.856 292.829C246.444 290.76 245.718 288.16 238.568 286.856L233.115 282.943C233.115 282.943 232.085 285.973 228.143 285.846C222.68 285.669 220.267 281.933 220.267 281.933L220.404 292.701Z" fill="#EB404D"/>
<path d="M211.646 187.19C211.646 187.19 200.78 222.949 215.403 275.675H238.137L240.246 187.19H211.646Z" fill="#C2322D"/>
<path d="M168.718 157.521L165.541 175.489C165.541 175.489 163.314 194.428 182.41 194.428L223.818 198.429L281.703 256.314L298.18 239.837L255.389 181.982C255.389 181.982 251.917 175.283 244.022 174.018L205.997 163.818L168.718 157.521Z" fill="#EB404D"/>
<path d="M211.646 161.465C211.646 161.465 204.536 166.575 184.361 165.918C168.718 165.408 165.541 163.279 165.541 163.279L171.582 115.918C174.26 104.08 177.496 97.2147 185.862 96.793C202.388 95.9005 211.078 102.707 210.43 114.525L209.087 127.923L211.646 161.465Z" fill="white"/>
<path d="M198.798 83.6402C199.377 84.1698 199.828 85.9548 199.308 90.3094C198.994 92.9183 197.052 94.7033 193.541 94.821C189.383 94.9583 187.274 93.0163 186.98 89.4463C185.381 89.6033 183.116 88.1125 184.391 85.6606C185.509 83.5323 187.039 85.9254 187.039 85.9254L187.127 82.0219C188.441 80.4135 197.229 77.5986 198.798 83.6402Z" fill="#F6A27F"/>
<path d="M187.166 83.6696C187.166 83.6696 187.961 83.5323 188.647 81.6884C190.109 83.8363 194.169 85.5428 198.053 85.8469C203.938 86.3176 206.674 79.9426 204.565 75.5096C203.447 73.1557 202.515 72.8026 195.866 71.5178C190.256 70.4292 187.539 74.774 187.539 74.774C184.567 73.8913 181.939 78.1478 184.008 81.9336C184.459 83.0517 184.43 83.5224 185.401 84.7876C186.107 85.7096 186.343 86.7492 187.088 87.1807L187.166 83.6696Z" fill="#B15200"/>
<path d="M186.666 88.5933C186.607 88.5933 186.539 88.5638 186.499 88.5148L184.989 86.5729C184.92 86.4846 184.93 86.3473 185.028 86.2786C185.117 86.21 185.254 86.2198 185.323 86.3179L186.833 88.2598C186.902 88.3481 186.892 88.4854 186.794 88.554C186.764 88.5835 186.715 88.5933 186.666 88.5933Z" fill="#C75329"/>
<path d="M188.373 81.8067C188.275 81.8067 188.186 81.7577 188.128 81.6792C188.039 81.5517 186.088 78.58 187.264 74.6765C187.314 74.5196 187.47 74.4313 187.627 74.4804C187.784 74.5294 187.873 74.6863 187.824 74.8432C186.735 78.4623 188.598 81.3163 188.618 81.3457C188.706 81.483 188.667 81.6596 188.539 81.7478C188.481 81.7871 188.422 81.8067 188.373 81.8067Z" fill="#522600"/>
<path d="M162.275 121.037L152.114 151.058C150.152 155.187 155.674 166.712 166.727 163.553L227.309 130.717L222.435 121.753L175.633 140.702L180.997 126.569L162.275 121.037Z" fill="#F6A27F"/>
<path d="M179.33 98.6163C174.553 97.8611 169.169 99.4205 164.54 111.896L160.264 122.949C160.264 122.949 160.264 127.108 167.394 130.619C174.877 134.297 180.762 130.619 180.762 130.619L186.038 113.867C186.028 113.857 189.726 100.254 179.33 98.6163Z" fill="#EB404D"/>
<path d="M222.425 121.753L229.477 118.173L243.207 116.28C243.207 116.28 244.865 117.408 239.578 119.017L234.292 121.037C234.292 121.037 235.185 122.145 234.979 123.41C234.979 123.41 235.763 124.46 235.4 125.774C235.4 125.774 236.352 126.51 235.665 128.089L227.309 130.717L222.425 121.753Z" fill="#F6A27F"/>
<path d="M258.468 96.8516L256.114 114.054C256.036 114.643 256.428 115.182 257.007 115.28L265.324 116.751C265.942 116.859 266.52 116.438 266.599 115.82L268.933 98.2639C269.012 97.6657 268.59 97.1164 267.992 97.0282L259.694 95.9199C259.106 95.8316 258.547 96.2533 258.468 96.8516Z" fill="#EB404D"/>
<path d="M259.351 96.9297L257.164 112.622L265.667 114.113L267.845 98.0674L259.351 96.9297Z" fill="white"/>
<path d="M261.107 115.555C261.572 115.555 261.95 115.177 261.95 114.712C261.95 114.246 261.572 113.868 261.107 113.868C260.641 113.868 260.263 114.246 260.263 114.712C260.263 115.177 260.641 115.555 261.107 115.555Z" fill="#FFEFD3"/>
<path d="M216.236 136.936C216.158 136.936 216.089 136.897 216.05 136.828C215.991 136.73 216.03 136.602 216.138 136.543L227.201 130.541C227.211 130.531 227.221 130.531 227.24 130.522L229.849 129.698C229.957 129.658 230.075 129.727 230.114 129.835C230.153 129.943 230.085 130.061 229.977 130.1L227.388 130.914L216.344 136.906C216.305 136.926 216.275 136.936 216.236 136.936Z" fill="#C75329"/>
<path d="M221.513 122.332C221.434 122.332 221.356 122.283 221.326 122.214C221.277 122.106 221.326 121.988 221.424 121.939L223.945 120.753C224.053 120.704 224.171 120.753 224.22 120.851C224.269 120.959 224.22 121.076 224.122 121.125L221.601 122.312C221.572 122.332 221.542 122.332 221.513 122.332Z" fill="#C75329"/>
<path d="M234.233 136.249C234.174 136.249 234.116 136.219 234.076 136.18L232.782 134.65C232.703 134.562 232.713 134.434 232.801 134.356C232.89 134.277 233.017 134.287 233.096 134.376L234.39 135.906C234.469 135.994 234.459 136.121 234.371 136.2C234.331 136.239 234.282 136.249 234.233 136.249Z" fill="#C75329"/>
<path d="M172.719 142.781C172.651 142.781 172.582 142.752 172.543 142.683C172.484 142.585 172.504 142.457 172.602 142.399L175.495 140.525C175.593 140.466 175.721 140.486 175.779 140.584C175.838 140.682 175.819 140.81 175.721 140.869L172.827 142.742C172.798 142.771 172.759 142.781 172.719 142.781Z" fill="#C75329"/>
<path d="M176.192 128.883C175.132 128.883 174.093 128.775 173.063 128.56C170.827 128.099 168.649 127.128 166.619 125.676C163.157 123.215 161.245 120.174 161.225 120.145C161.166 120.047 161.196 119.919 161.294 119.86C161.392 119.801 161.519 119.831 161.578 119.929C161.598 119.958 163.471 122.94 166.874 125.353C170.003 127.569 175.093 129.746 181.605 127.55C181.713 127.51 181.831 127.569 181.87 127.677C181.909 127.785 181.851 127.903 181.743 127.942C179.86 128.57 178.006 128.883 176.192 128.883Z" fill="#FFEFD3"/>
<path d="M186.372 162.014C178.172 162.014 171.562 161.18 171.503 161.17C171.386 161.16 171.307 161.052 171.327 160.935C171.337 160.817 171.444 160.739 171.562 160.758C171.631 160.768 178.261 161.611 186.47 161.602C194.041 161.592 204.536 160.856 211.558 157.345C211.656 157.296 211.783 157.335 211.833 157.443C211.882 157.541 211.842 157.669 211.734 157.718C208.596 159.287 204.526 160.444 199.642 161.16C195.738 161.729 191.305 162.023 186.46 162.023C186.431 162.014 186.401 162.014 186.372 162.014Z" fill="#EB404D"/>
<path d="M209.175 127.334C209.096 127.334 209.018 127.285 208.979 127.206C208.94 127.098 208.989 126.98 209.096 126.931C213.814 125.019 217.139 122.008 219.09 119.811C221.209 117.428 222.229 115.476 222.239 115.456C222.288 115.358 222.415 115.309 222.523 115.368C222.621 115.417 222.67 115.545 222.611 115.653C222.602 115.672 221.562 117.663 219.414 120.076C217.423 122.302 214.049 125.372 209.253 127.314C209.224 127.324 209.195 127.334 209.175 127.334Z" fill="#FFEFD3"/>
<path d="M290.657 247.566C290.598 247.566 290.539 247.537 290.49 247.488L246.179 191.388C242.403 186.602 236.509 183.865 230.418 184.071L189.52 185.425C185.891 185.425 183.38 184.474 182.066 182.61C180.193 179.952 181.419 176.461 181.468 176.314L185.597 165.878C185.636 165.77 185.764 165.721 185.872 165.76C185.979 165.8 186.028 165.927 185.989 166.035L181.86 176.461C181.85 176.49 180.664 179.903 182.409 182.375C183.645 184.13 186.038 185.013 189.52 185.013L230.408 183.66C233.478 183.561 236.568 184.189 239.353 185.484C242.138 186.778 244.61 188.73 246.513 191.143L290.824 247.243C290.892 247.331 290.883 247.468 290.784 247.537C290.745 247.557 290.696 247.566 290.657 247.566Z" fill="#FFEFD3"/>
<path d="M188.52 172.969C186.901 172.969 185.195 172.616 183.439 171.91C183.331 171.871 183.282 171.743 183.322 171.635C183.361 171.527 183.488 171.478 183.596 171.517C188.068 173.302 191.982 172.783 195.248 169.978C197.69 167.869 198.837 165.201 198.847 165.172C198.896 165.064 199.014 165.015 199.122 165.064C199.23 165.113 199.279 165.231 199.23 165.339C199.181 165.446 198.043 168.124 195.532 170.291C194.051 171.566 192.394 172.4 190.618 172.763C189.932 172.9 189.226 172.969 188.52 172.969Z" fill="#FFEFD3"/>
<path d="M227.408 275.881C227.3 275.881 227.202 275.792 227.202 275.684L223.622 198.439C223.612 198.321 223.71 198.223 223.818 198.223C223.936 198.214 224.034 198.312 224.034 198.419L227.613 275.665C227.623 275.783 227.525 275.881 227.417 275.881H227.408Z" fill="#FFEFD3"/>
<path d="M245.826 290.435H220.365C220.247 290.435 220.159 290.337 220.159 290.229C220.159 290.122 220.257 290.023 220.365 290.023H245.826C245.944 290.023 246.032 290.122 246.032 290.229C246.032 290.337 245.934 290.435 245.826 290.435Z" fill="#FFEFD3"/>
<path d="M295.12 262.709C295.051 262.709 294.982 262.679 294.943 262.621C294.884 262.522 294.904 262.395 295.002 262.336L316.393 248.144C316.491 248.086 316.618 248.105 316.677 248.203C316.736 248.301 316.716 248.429 316.618 248.488L295.228 262.679C295.198 262.699 295.159 262.709 295.12 262.709Z" fill="#FFEFD3"/>
<path d="M250.808 89.2699L247.307 80.1487C249.7 77.5791 251.328 74.2543 251.769 70.498C252.878 61.112 246.159 52.6087 236.773 51.5005C227.387 50.3922 218.884 57.1105 217.776 66.4964C216.668 75.8824 223.386 84.3857 232.772 85.4939C235.783 85.847 238.705 85.3958 241.324 84.3072L250.808 89.2699Z" fill="white"/>
<path d="M250.808 89.4854C250.779 89.4854 250.74 89.4756 250.71 89.4658L241.314 84.5423C238.617 85.6408 235.655 86.0429 232.742 85.6996C223.258 84.5816 216.452 75.9606 217.57 66.4766C218.109 61.8866 220.404 57.7771 224.043 54.9035C227.672 52.0396 232.203 50.7548 236.803 51.2943C241.393 51.8337 245.502 54.1287 248.376 57.7673C251.24 61.3962 252.525 65.9273 251.985 70.5271C251.554 74.1658 250.024 77.5102 247.562 80.1975L251.014 89.201C251.044 89.2795 251.024 89.3775 250.955 89.4266C250.906 89.4658 250.857 89.4854 250.808 89.4854ZM241.314 84.101C241.344 84.101 241.383 84.1108 241.412 84.1206L250.406 88.8283L247.101 80.2171C247.071 80.1387 247.091 80.0602 247.14 80.0014C249.602 77.3631 251.122 74.0677 251.544 70.4683C252.073 65.9862 250.818 61.5629 248.023 58.0223C245.228 54.4818 241.216 52.2358 236.734 51.7062C232.252 51.1766 227.829 52.432 224.288 55.2271C220.748 58.0223 218.502 62.0337 217.972 66.5158C216.883 75.7743 223.523 84.1893 232.782 85.2779C235.655 85.6114 238.578 85.2093 241.226 84.1108C241.265 84.1108 241.295 84.101 241.314 84.101Z" fill="#EB404D"/>
<path d="M228.339 71.0861C227.79 71.0861 227.28 71.0076 226.799 70.8605C226.319 70.7134 225.907 70.478 225.544 70.1543C225.191 69.8405 224.906 69.4286 224.701 68.9284C224.495 68.4282 224.396 67.8201 224.396 67.1139C224.396 66.4274 224.495 65.8487 224.701 65.3682C224.906 64.8876 225.191 64.4953 225.544 64.1912C225.897 63.8872 226.319 63.6714 226.799 63.5243C227.28 63.387 227.79 63.3184 228.339 63.3184C228.879 63.3184 229.389 63.387 229.869 63.5243C230.35 63.6616 230.771 63.8872 231.125 64.1912C231.478 64.4953 231.762 64.8876 231.968 65.3682C232.174 65.8487 232.282 66.4372 232.282 67.1139C232.282 67.8201 232.174 68.4282 231.968 68.9284C231.762 69.4286 231.478 69.8405 231.125 70.1543C230.771 70.4682 230.35 70.7036 229.869 70.8605C229.398 71.0076 228.888 71.0861 228.339 71.0861ZM228.339 65.5839C228.153 65.5839 227.996 65.6134 227.868 65.6624C227.741 65.7212 227.633 65.7899 227.555 65.8684C227.476 65.9566 227.407 66.0547 227.358 66.1626C227.309 66.2705 227.28 66.3882 227.26 66.4961C227.241 66.6039 227.231 66.7216 227.221 66.8197C227.221 66.9276 227.211 67.0159 227.211 67.0943C227.211 67.1728 227.211 67.2611 227.221 67.3689C227.221 67.4768 227.241 67.5847 227.26 67.7024C227.28 67.8201 227.309 67.928 227.358 68.0359C227.407 68.1437 227.466 68.2418 227.555 68.3301C227.633 68.4184 227.741 68.487 227.868 68.5459C227.996 68.6047 228.153 68.6243 228.339 68.6243C228.526 68.6243 228.682 68.5949 228.81 68.5459C228.937 68.487 229.045 68.4184 229.124 68.3301C229.202 68.2418 229.271 68.1437 229.32 68.0359C229.369 67.928 229.398 67.8103 229.418 67.7024C229.438 67.5847 229.457 67.4768 229.457 67.3689C229.457 67.2611 229.467 67.1728 229.467 67.0943C229.467 67.0159 229.467 66.9276 229.457 66.8197C229.457 66.7118 229.438 66.6039 229.418 66.4961C229.398 66.3882 229.359 66.2705 229.32 66.1626C229.271 66.0547 229.212 65.9566 229.124 65.8684C229.045 65.7801 228.937 65.7114 228.81 65.6624C228.682 65.6134 228.526 65.5839 228.339 65.5839ZM234.351 63.5636H238.51L236.019 73.538H231.86L234.351 63.5636ZM242.197 73.8126C241.648 73.8126 241.138 73.7341 240.658 73.587C240.177 73.4399 239.765 73.2045 239.402 72.8809C239.049 72.567 238.765 72.1551 238.559 71.6549C238.353 71.1547 238.255 70.5466 238.255 69.8405C238.255 69.1539 238.353 68.5753 238.559 68.0947C238.765 67.6141 239.049 67.2218 239.402 66.9178C239.755 66.6137 240.177 66.398 240.658 66.2509C241.138 66.1136 241.648 66.0449 242.197 66.0449C242.737 66.0449 243.247 66.1136 243.727 66.2509C244.208 66.3882 244.63 66.6137 244.983 66.9178C245.336 67.2218 245.62 67.6141 245.826 68.0947C246.032 68.5753 246.14 69.1637 246.14 69.8405C246.14 70.5466 246.032 71.1547 245.826 71.6549C245.62 72.1551 245.336 72.567 244.983 72.8809C244.63 73.1947 244.208 73.4301 243.727 73.587C243.257 73.7341 242.747 73.8126 242.197 73.8126ZM242.197 68.3105C242.011 68.3105 241.854 68.3399 241.727 68.3889C241.599 68.4478 241.491 68.5164 241.413 68.5949C241.334 68.6832 241.266 68.7812 241.217 68.8891C241.168 68.997 241.138 69.1147 241.119 69.2226C241.099 69.3305 241.089 69.4482 241.079 69.5462C241.079 69.6541 241.07 69.7424 241.07 69.8209C241.07 69.8993 241.07 69.9876 241.079 70.0955C241.079 70.2034 241.099 70.3112 241.119 70.4289C241.138 70.5466 241.168 70.6545 241.217 70.7624C241.266 70.8703 241.325 70.9684 241.413 71.0566C241.491 71.1449 241.599 71.2136 241.727 71.2724C241.854 71.3312 242.011 71.3509 242.197 71.3509C242.384 71.3509 242.541 71.3214 242.668 71.2724C242.796 71.2136 242.904 71.1449 242.982 71.0566C243.061 70.9684 243.129 70.8703 243.178 70.7624C243.227 70.6545 243.257 70.5368 243.276 70.4289C243.296 70.3112 243.316 70.2034 243.316 70.0955C243.316 69.9876 243.325 69.8993 243.325 69.8209C243.325 69.7424 243.325 69.6541 243.316 69.5462C243.316 69.4384 243.296 69.3305 243.276 69.2226C243.257 69.1147 243.217 68.997 243.178 68.8891C243.129 68.7812 243.07 68.6832 242.982 68.5949C242.904 68.5066 242.796 68.438 242.668 68.3889C242.551 68.3399 242.384 68.3105 242.197 68.3105Z" fill="#EB404D"/>
<path d="M122.387 263.493H89.0112V292.436H122.387V263.493Z" fill="white"/>
<path d="M122.396 292.651H89.0209C88.9032 292.651 88.8149 292.553 88.8149 292.445V263.503C88.8149 263.385 88.913 263.297 89.0209 263.297H122.396C122.514 263.297 122.602 263.395 122.602 263.503V292.445C122.602 292.553 122.504 292.651 122.396 292.651ZM89.2269 292.23H122.191V263.699H89.2269V292.23Z" fill="#EB404D"/>
<path d="M124.858 257.55H86.5591V263.346H124.858V257.55Z" fill="white"/>
<path d="M124.858 263.552H86.559C86.4413 263.552 86.353 263.454 86.353 263.346V257.55C86.353 257.432 86.4511 257.344 86.559 257.344H124.858C124.976 257.344 125.064 257.442 125.064 257.55V263.346C125.064 263.454 124.966 263.552 124.858 263.552ZM86.765 263.13H124.642V257.756H86.7551V263.13H86.765Z" fill="#EB404D"/>
<path d="M89.0111 274.557C88.962 274.557 88.9228 274.537 88.8836 274.508C88.7953 274.439 88.7855 274.302 88.8541 274.213L97.632 263.474C97.7007 263.386 97.838 263.376 97.9262 263.444C98.0145 263.513 98.0243 263.65 97.9557 263.739L89.1778 274.478C89.1386 274.527 89.0797 274.557 89.0111 274.557Z" fill="#EB404D"/>
<path d="M89.0111 284.658C88.9621 284.658 88.913 284.638 88.8738 284.609C88.7855 284.53 88.7757 284.403 88.8444 284.314L106.459 263.208C106.537 263.12 106.665 263.11 106.753 263.179C106.841 263.257 106.851 263.385 106.783 263.473L89.168 284.579C89.1386 284.628 89.0797 284.658 89.0111 284.658Z" fill="#EB404D"/>
<path d="M93.4046 292.651C93.3556 292.651 93.3163 292.631 93.2771 292.602C93.1888 292.533 93.179 292.396 93.2477 292.308L116.894 263.208C116.963 263.12 117.1 263.11 117.188 263.179C117.277 263.247 117.286 263.385 117.218 263.473L93.5713 292.573C93.5223 292.622 93.4635 292.651 93.4046 292.651Z" fill="#EB404D"/>
<path d="M103.811 292.652C103.762 292.652 103.713 292.632 103.673 292.603C103.585 292.524 103.575 292.397 103.654 292.309L122.239 270.369C122.318 270.28 122.445 270.271 122.534 270.349C122.622 270.428 122.632 270.555 122.553 270.643L103.968 292.583C103.928 292.622 103.87 292.652 103.811 292.652Z" fill="#EB404D"/>
<path d="M113.099 292.652C113.05 292.652 112.991 292.632 112.951 292.593C112.873 292.514 112.873 292.377 112.951 292.299L122.239 282.834C122.318 282.756 122.455 282.756 122.534 282.834C122.612 282.913 122.612 283.05 122.534 283.128L113.246 292.593C113.206 292.622 113.157 292.652 113.099 292.652Z" fill="#EB404D"/>
<path d="M299.531 189.725C309.429 184.62 314.907 175.544 311.766 169.454C308.625 163.364 298.055 162.566 288.157 167.671C278.258 172.776 272.781 181.851 275.922 187.941C279.063 194.031 289.633 194.83 299.531 189.725Z" fill="white"/>
<path d="M111.059 95.851C105.86 94.5073 101.653 88.5639 103.948 74.9214C105.802 63.9073 116.306 59.6704 121.17 61.9556C126.849 64.6429 123.769 71.3219 119.277 79.9331C115.227 87.6812 114.374 96.714 111.059 95.851Z" fill="#FFEFD3"/>
<path d="M106.674 257.756C106.655 257.756 106.635 257.756 106.616 257.746C104.036 257.001 101.506 255.451 99.505 253.372C97.7396 251.548 96.5235 249.449 96.2489 247.772C96.0527 246.585 96.3371 245.693 97.0629 245.193C97.9554 244.585 98.8675 244.447 99.7894 244.781C103.909 246.311 106.763 257.03 106.88 257.491C106.9 257.56 106.88 257.639 106.822 257.697C106.782 257.737 106.733 257.756 106.674 257.756ZM98.7989 245.026C98.2987 245.026 97.7985 245.202 97.2983 245.546C96.5627 246.056 96.5431 247.007 96.6608 247.713C97.1217 250.548 100.829 255.491 106.37 257.246C105.831 255.334 103.144 246.487 99.6325 245.183C99.3579 245.075 99.0735 245.026 98.7989 245.026Z" fill="#EB404D"/>
<path d="M106.586 257.756C106.537 257.756 106.478 257.737 106.439 257.697C106.39 257.648 106.361 257.57 106.38 257.491C106.498 257.04 109.352 246.311 113.471 244.781C114.393 244.437 115.305 244.575 116.198 245.192C116.923 245.693 117.198 246.585 117.012 247.772C116.737 249.459 115.521 251.548 113.756 253.372C111.755 255.451 109.224 257.001 106.645 257.746C106.625 257.756 106.606 257.756 106.586 257.756ZM114.472 245.026C114.197 245.026 113.912 245.075 113.628 245.183C110.117 246.487 107.43 255.334 106.89 257.246C112.432 255.491 116.139 250.547 116.6 247.713C116.717 247.007 116.698 246.056 115.962 245.546C115.472 245.193 114.972 245.026 114.472 245.026Z" fill="#EB404D"/>
<path d="M312.205 219.585C310.194 219.585 308.556 217.947 308.556 215.937C308.556 213.926 310.194 212.288 312.205 212.288C314.215 212.288 315.853 213.926 315.853 215.937C315.853 217.947 314.215 219.585 312.205 219.585ZM312.205 212.867C310.518 212.867 309.135 214.24 309.135 215.937C309.135 217.633 310.508 219.006 312.205 219.006C313.901 219.006 315.274 217.633 315.274 215.937C315.274 214.24 313.892 212.867 312.205 212.867Z" fill="#EB404D"/>
<path d="M147.053 102.206C145.042 102.206 143.404 100.568 143.404 98.5576C143.404 96.5471 145.042 94.9092 147.053 94.9092C149.063 94.9092 150.701 96.5471 150.701 98.5576C150.701 100.568 149.063 102.206 147.053 102.206ZM147.053 95.4878C145.366 95.4878 143.983 96.8609 143.983 98.5576C143.983 100.245 145.356 101.627 147.053 101.627C148.74 101.627 150.123 100.254 150.123 98.5576C150.123 96.8609 148.749 95.4878 147.053 95.4878Z" fill="#EB404D"/>
<path d="M265.294 157.737C265.137 157.737 265 157.61 265 157.443V154.677C265 154.52 265.127 154.383 265.294 154.383C265.451 154.383 265.588 154.51 265.588 154.677V157.443C265.588 157.61 265.461 157.737 265.294 157.737Z" fill="#EB404D"/>
<path d="M265.294 165.318C265.137 165.318 265 165.191 265 165.024V162.258C265 162.101 265.127 161.964 265.294 161.964C265.451 161.964 265.588 162.091 265.588 162.258V165.024C265.588 165.181 265.461 165.318 265.294 165.318Z" fill="#EB404D"/>
<path d="M270.463 160.14H267.698C267.541 160.14 267.403 160.013 267.403 159.846C267.403 159.689 267.531 159.552 267.698 159.552H270.463C270.62 159.552 270.758 159.679 270.758 159.846C270.758 160.013 270.63 160.14 270.463 160.14Z" fill="#EB404D"/>
<path d="M262.892 160.14H260.126C259.969 160.14 259.832 160.013 259.832 159.846C259.832 159.689 259.959 159.552 260.126 159.552H262.892C263.048 159.552 263.186 159.679 263.186 159.846C263.176 160.013 263.048 160.14 262.892 160.14Z" fill="#EB404D"/>
<path d="M111.725 118.928C111.568 118.928 111.431 118.801 111.431 118.634V115.868C111.431 115.712 111.559 115.574 111.725 115.574C111.882 115.574 112.02 115.702 112.02 115.868V118.634C112.02 118.791 111.892 118.928 111.725 118.928Z" fill="#EB404D"/>
<path d="M111.725 126.5C111.568 126.5 111.431 126.372 111.431 126.206V123.44C111.431 123.283 111.559 123.146 111.725 123.146C111.882 123.146 112.02 123.273 112.02 123.44V126.206C112.02 126.372 111.892 126.5 111.725 126.5Z" fill="#EB404D"/>
<path d="M116.904 121.332H114.138C113.982 121.332 113.844 121.204 113.844 121.037C113.844 120.88 113.972 120.743 114.138 120.743H116.904C117.061 120.743 117.198 120.871 117.198 121.037C117.189 121.204 117.061 121.332 116.904 121.332Z" fill="#EB404D"/>
<path d="M109.323 121.332H106.557C106.4 121.332 106.263 121.204 106.263 121.037C106.263 120.88 106.39 120.743 106.557 120.743H109.323C109.48 120.743 109.617 120.871 109.617 121.037C109.617 121.204 109.48 121.332 109.323 121.332Z" fill="#EB404D"/>
<path d="M240.422 37.3083C240.265 37.3083 240.127 37.1808 240.127 37.0141V34.2483C240.127 34.0914 240.255 33.9541 240.422 33.9541C240.588 33.9541 240.716 34.0816 240.716 34.2483V37.0141C240.716 37.171 240.588 37.3083 240.422 37.3083Z" fill="#EB404D"/>
<path d="M240.422 44.8796C240.265 44.8796 240.127 44.7521 240.127 44.5854V41.8196C240.127 41.6627 240.255 41.5254 240.422 41.5254C240.588 41.5254 240.716 41.6529 240.716 41.8196V44.5854C240.716 44.7521 240.588 44.8796 240.422 44.8796Z" fill="#EB404D"/>
<path d="M245.601 39.7115H242.835C242.678 39.7115 242.541 39.584 242.541 39.4173C242.541 39.2604 242.668 39.123 242.835 39.123H245.601C245.757 39.123 245.895 39.2505 245.895 39.4173C245.885 39.584 245.757 39.7115 245.601 39.7115Z" fill="#EB404D"/>
<path d="M238.019 39.7115H235.253C235.096 39.7115 234.959 39.584 234.959 39.4173C234.959 39.2604 235.086 39.123 235.253 39.123H238.019C238.176 39.123 238.313 39.2505 238.313 39.4173C238.313 39.584 238.176 39.7115 238.019 39.7115Z" fill="#EB404D"/>
</svg>
