<svg width="331" height="286" viewBox="0 0 331 286" fill="none" xmlns="http://www.w3.org/2000/svg">
<path d="M275.804 151.699C275.804 89.9436 225.742 39.8809 163.986 39.8809C102.231 39.8809 52.1685 89.9436 52.1685 151.699C52.1685 213.454 102.231 263.517 163.986 263.517C225.742 263.517 275.804 213.454 275.804 151.699Z" fill="#FFEBEC"/>
<g opacity="0.729996">
<g opacity="0.729996">
<path opacity="0.729996" d="M255.312 178.576V216.17C251.192 221.998 246.559 227.377 241.435 232.31V178.576H241.415V178.448C241.351 178.17 234.605 172.577 229.417 168.329V165.98L235.693 164.358C238.278 163.697 240.986 163.909 243.4 164.956C244.489 165.425 245.62 165.874 246.752 166.237V171.147C251.939 175.395 255.227 178.17 255.29 178.448V178.576H255.312Z" fill="#7FD6CB"/>
</g>
</g>
<path d="M4.84229 8.23419L37.6552 85.2239L61.6385 68.8184L75.5367 89.0137L78.044 54.9453L107.069 37.2591L4.84229 8.23419Z" fill="url(#paint0_linear_304_3413)"/>
<path d="M66.9539 65.1741L37.6559 85.2257L61.6374 68.8184L75.5356 89.0137L78.0448 54.9471L31.7935 27.4021L66.9539 65.1741Z" fill="#FE6332"/>
<path d="M77.4302 63.2969L31.7949 27.4019L78.0444 54.9468L77.4302 63.2969Z" fill="#FF7733"/>
<path d="M76.1247 98.6152C75.8661 97.1155 75.5374 95.6193 75.1494 94.1663L77.3999 93.5628C77.8076 95.0841 78.1489 96.6503 78.4201 98.2183L76.1247 98.6152Z" fill="#FF1E20"/>
<path d="M78.3423 117.264L76.0487 116.856C76.584 113.846 76.8605 110.778 76.8767 107.736L79.2045 107.748C79.1901 110.92 78.8991 114.122 78.3423 117.264ZM62.3984 118.636C59.7509 118.045 57.0334 117.743 54.3249 117.743L53.382 117.754L53.3245 115.426C56.5305 115.347 59.7671 115.658 62.9085 116.364L62.3984 118.636ZM36.7375 123.184L35.1103 121.519C37.1596 119.511 39.9633 118.007 43.683 116.919L44.4643 119.117C41.041 120.118 38.4851 121.474 36.7375 123.184ZM78.6189 126.688C76.4762 125.125 74.1754 123.487 71.6842 122.124L70.9065 121.711L71.9734 119.642C72.25 119.784 72.5284 119.931 72.8032 120.08C75.4165 121.512 77.8843 123.268 79.9911 124.804L78.6189 126.688ZM178.669 129.756L177.95 127.541C180.91 126.58 183.858 125.576 186.789 124.534L187.567 126.731C184.619 127.778 181.652 128.789 178.669 129.756ZM160.571 134.914L160.022 132.651C162.935 131.943 165.967 131.142 169.031 130.264L169.674 132.506C166.577 133.391 163.515 134.199 160.571 134.914ZM71.8692 135.173L69.8486 134.012C71.3591 131.387 72.6505 128.592 73.6922 125.707L75.8817 126.496C74.795 129.51 73.4462 132.428 71.8692 135.173ZM95.1143 136.1C92.377 135.169 89.8104 134.03 87.4863 132.719C87.1217 132.515 86.757 132.301 86.396 132.083L87.5994 130.088C87.9389 130.293 88.2801 130.494 88.6286 130.69C90.8306 131.933 93.2643 133.01 95.8651 133.896L95.1143 136.1ZM142.059 138.454L141.745 136.146C144.74 135.739 147.83 135.228 150.923 134.632L151.364 136.919C148.228 137.524 145.098 138.041 142.059 138.454ZM113.788 139.514L112.301 139.399C109.438 139.16 106.845 138.839 104.371 138.409L104.767 136.116C107.173 136.532 109.7 136.845 112.495 137.078L113.952 137.188L113.788 139.514ZM123.238 139.819L123.225 137.49C126.26 137.475 129.382 137.351 132.504 137.122L132.674 139.444C129.501 139.677 126.325 139.805 123.238 139.819ZM33.1166 140.351C31.8019 137.689 31.1086 134.763 31.1104 131.889C31.1104 131.652 31.1139 131.417 31.1247 131.182L31.1517 130.675L33.474 130.846L33.4507 131.272C33.4435 131.48 33.4399 131.685 33.4399 131.889C33.4381 134.408 34.0488 136.978 35.2055 139.32L33.1166 140.351ZM58.6302 149.012L57.6028 146.921C60.0239 145.73 62.3678 143.884 64.5699 141.434L66.3031 142.989C63.9017 145.662 61.3189 147.69 58.6302 149.012ZM48.9546 150.91C45.5725 150.684 42.3378 149.606 39.5987 147.79L40.8865 145.849C43.2879 147.44 46.1311 148.387 49.1091 148.584L48.9546 150.91Z" fill="#FF1E20"/>
<path d="M196.483 123.445L195.655 121.268C197.105 120.715 198.554 120.155 199.998 119.591L200.846 121.761C199.395 122.326 197.942 122.89 196.483 123.445Z" fill="#FF1E20"/>
<path d="M269.811 180.214C268.627 180.214 267.611 179.314 267.496 178.109C267.372 176.83 268.308 175.689 269.588 175.567C283.666 174.202 296.616 167.483 306.055 156.644C306.899 155.672 308.371 155.575 309.34 156.417C310.309 157.263 310.412 158.734 309.566 159.704C299.342 171.445 285.306 178.725 270.039 180.203C269.962 180.21 269.886 180.214 269.811 180.214Z" fill="#FF1E20"/>
<path d="M241.424 178.579L160.276 226.433L79.1284 178.579C79.1284 178.54 79.1284 178.486 79.141 178.446C79.2092 178.143 83.6869 174.403 90.5175 168.855C90.5839 168.803 90.636 168.749 90.7025 168.697C113.111 150.504 160.276 113.246 160.276 113.246C160.276 113.246 207.442 150.504 229.85 168.697C236.786 174.324 241.345 178.13 241.409 178.446C241.424 178.486 241.424 178.54 241.424 178.579Z" fill="#7A4C08"/>
<path d="M193.649 73.616H106.096C98.5865 73.616 92.4995 79.7048 92.4995 87.2124V219.592C92.4995 227.102 98.5865 233.188 106.096 233.188H215.803C223.313 233.188 229.4 227.102 229.4 219.592V109.367L193.649 73.616Z" fill="white"/>
<path d="M193.648 95.7698C193.648 103.279 199.737 109.366 207.245 109.366H229.4L193.648 73.6167V95.7698Z" fill="#E6E8E8"/>
<path d="M148.258 95.9936H118.053C115.377 95.9936 113.209 98.1615 113.209 100.838V131.043C113.209 133.717 115.377 135.887 118.053 135.887H148.258C150.932 135.887 153.102 133.717 153.102 131.043V100.838C153.102 98.1615 150.932 95.9936 148.258 95.9936Z" fill="url(#paint1_linear_304_3413)"/>
<path d="M189.637 146.972H117.157C115.004 146.972 113.256 148.719 113.256 150.874C113.256 153.03 115.004 154.777 117.157 154.777H189.637C191.791 154.777 193.54 153.03 193.54 150.874C193.54 148.719 191.791 146.972 189.637 146.972Z" fill="#D9DBDB"/>
<path d="M189.637 166.413H117.157C115.003 166.413 113.256 168.161 113.256 170.316C113.256 172.471 115.003 174.219 117.157 174.219H189.637C191.79 174.219 193.54 172.471 193.54 170.316C193.54 168.161 191.79 166.413 189.637 166.413Z" fill="#D9DBDB"/>
<path d="M156.72 185.272H117.158C115.002 185.272 113.255 187.02 113.255 189.175C113.255 191.331 115.002 193.078 117.158 193.078H156.72C158.876 193.078 160.623 191.331 160.623 189.175C160.623 187.02 158.876 185.272 156.72 185.272Z" fill="#D9DBDB"/>
<path d="M241.433 178.574V256.424C241.433 261.866 236.984 266.313 231.543 266.313H88.9997C83.5594 266.313 79.1392 261.866 79.1392 256.424V178.574L160.285 226.42L241.433 178.574Z" fill="url(#paint2_linear_304_3413)"/>
<path d="M238.69 263.215L186.461 210.986L160.285 226.42L134.1 210.979L81.8672 263.212C83.6633 265.112 86.1886 266.313 89.0013 266.313H231.543C234.356 266.313 236.885 265.114 238.69 263.215Z" fill="#FE6332"/>
<path d="M257.822 71.7071C234.462 74.0007 215.8 93.2549 214.13 116.667C213.298 128.318 216.599 139.14 222.681 147.896C224.971 151.195 225.346 155.457 223.807 159.166L219.955 168.439L235.701 164.357C238.266 163.692 240.978 163.901 243.41 164.955C250.709 168.122 258.93 169.564 267.569 168.729C290.496 166.509 309.048 147.993 311.265 125.064C314.235 94.3038 288.591 68.6878 257.822 71.7071Z" fill="#FE6332"/>
<path d="M263.958 144.849L266.638 142.169C266.638 142.169 264.509 137.154 273.43 128.696C278.74 123.664 279.931 118.789 279.498 114.804C278.812 108.46 273.63 103.28 267.288 102.594C263.302 102.161 258.428 103.35 253.393 108.659C244.937 117.58 239.921 115.452 239.921 115.452L237.243 118.132L263.958 144.849Z" fill="white"/>
<path d="M243.287 128.484C241.166 131.376 241.404 135.457 244.02 138.07C246.633 140.685 250.714 140.924 253.605 138.805L243.287 128.484Z" fill="white"/>
<path d="M281.369 105.844L279.701 107.513C278.402 105.447 276.637 103.683 274.559 102.399L276.242 100.716C277.664 99.2938 279.961 99.2938 281.384 100.716C282.792 102.124 282.792 104.422 281.369 105.844Z" fill="white"/>
<path d="M261.439 71.4981C278.802 76.6978 291.466 92.7782 291.466 111.835C291.466 135.098 272.609 153.955 249.346 153.955C237.091 153.955 226.093 148.689 218.397 140.335C219.609 142.988 221.032 145.524 222.681 147.897C224.971 151.196 225.346 155.457 223.807 159.166L219.954 168.441L235.701 164.358C238.267 163.694 240.978 163.9 243.409 164.954C250.709 168.121 258.931 169.565 267.569 168.728C290.498 166.508 309.05 147.992 311.264 125.063C314.118 95.5173 290.57 70.7347 261.439 71.4981Z" fill="#FF1E20"/>
<path d="M7.62338 31.0643L18.2671 55.4876C18.8077 56.7341 18.2347 58.1818 16.9882 58.7188L16.6093 58.8823C15.3574 59.4229 13.9043 58.8391 13.3745 57.5819L3.11158 32.9951C2.56916 31.7055 3.21037 30.2255 4.52152 29.7406C5.74466 29.2898 7.10431 29.8699 7.62338 31.0643Z" fill="url(#paint3_linear_304_3413)"/>
<path d="M49.3184 213.938C47.569 213.938 46.1519 212.52 46.1519 210.77C46.1519 209.023 47.569 207.604 49.3184 207.604C51.0678 207.604 52.4867 209.023 52.4867 210.77C52.4867 212.52 51.0678 213.938 49.3184 213.938ZM49.3184 202.946C44.997 202.946 41.4946 206.45 41.4946 210.77C41.4946 215.093 44.997 218.596 49.3184 218.596C53.6398 218.596 57.144 215.093 57.144 210.77C57.144 206.45 53.6398 202.946 49.3184 202.946Z" fill="#FFEBEC"/>
<path d="M259.007 245.602C257.258 245.602 255.839 244.184 255.839 242.434C255.839 240.685 257.258 239.268 259.007 239.268C260.757 239.268 262.176 240.685 262.176 242.434C262.176 244.184 260.757 245.602 259.007 245.602ZM259.007 234.609C254.686 234.609 251.184 238.113 251.184 242.434C251.184 246.757 254.686 250.26 259.007 250.26C263.329 250.26 266.833 246.757 266.833 242.434C266.833 238.113 263.329 234.609 259.007 234.609Z" fill="#FFEBEC"/>
<path d="M323.027 121.488C321.689 121.488 320.602 120.404 320.602 119.064C320.602 117.724 321.689 116.637 323.027 116.637C324.367 116.637 325.454 117.724 325.454 119.064C325.454 120.404 324.367 121.488 323.027 121.488ZM323.027 113.072C319.719 113.072 317.037 115.755 317.037 119.064C317.037 122.372 319.719 125.054 323.027 125.054C326.337 125.054 329.019 122.372 329.019 119.064C329.019 115.755 326.337 113.072 323.027 113.072Z" fill="#FFEBEC"/>
<path d="M217.53 26.1294C216.114 26.1294 214.965 24.9817 214.965 23.5646C214.965 22.1493 216.114 21.0015 217.53 21.0015C218.945 21.0015 220.094 22.1493 220.094 23.5646C220.094 24.9817 218.945 26.1294 217.53 26.1294ZM217.53 17.2297C214.031 17.2297 211.195 20.0676 211.195 23.5646C211.195 27.0634 214.031 29.8994 217.53 29.8994C221.028 29.8994 223.863 27.0634 223.863 23.5646C223.863 20.0676 221.028 17.2297 217.53 17.2297Z" fill="#FFEBEC"/>
<path d="M14.8963 164.83C11.2178 164.83 8.23633 167.811 8.23633 171.49C8.23633 175.168 11.2178 178.151 14.8963 178.151C18.5747 178.151 21.5562 175.168 21.5562 171.49C21.5562 167.811 18.5747 164.83 14.8963 164.83Z" fill="#FFEBEC"/>
<path d="M282.112 186.878C279.437 186.878 277.268 189.048 277.268 191.722C277.268 194.399 279.437 196.566 282.112 196.566C284.786 196.566 286.956 194.399 286.956 191.722C286.956 189.048 284.786 186.878 282.112 186.878Z" fill="#FFEBEC"/>
<path d="M121.691 19.2204C117.781 19.2204 114.611 22.3905 114.611 26.3006C114.611 30.2107 117.781 33.3809 121.691 33.3809C125.601 33.3809 128.771 30.2107 128.771 26.3006C128.771 22.3905 125.601 19.2204 121.691 19.2204Z" fill="#FFEBEC"/>
<path d="M159.595 275.681C156.746 275.681 154.435 277.991 154.435 280.842C154.435 283.69 156.746 286 159.595 286C162.443 286 164.753 283.69 164.753 280.842C164.753 277.991 162.443 275.681 159.595 275.681Z" fill="#FFEBEC"/>
<path d="M259.46 46.5294C256.116 46.5294 253.406 49.2397 253.406 52.584C253.406 55.9284 256.116 58.6387 259.46 58.6387C262.803 58.6387 265.515 55.9284 265.515 52.584C265.515 49.2397 262.803 46.5294 259.46 46.5294Z" fill="#FFEBEC"/>
<path d="M44.9741 93.6076C43.0702 93.6076 41.5273 95.1504 41.5273 97.0543C41.5273 98.9581 43.0702 100.501 44.9741 100.501C46.8779 100.501 48.4208 98.9581 48.4208 97.0543C48.4208 95.1504 46.8779 93.6076 44.9741 93.6076Z" fill="#FFEBEC"/>
<path d="M325.12 82.8749C321.872 82.8749 319.241 85.508 319.241 88.7553C319.241 92.0027 321.872 94.6357 325.12 94.6357C328.369 94.6357 331 92.0027 331 88.7553C331 85.508 328.369 82.8749 325.12 82.8749Z" fill="#FFEBEC"/>
<path d="M11.5924 113.992C9.51968 113.992 7.84033 115.673 7.84033 117.744C7.84033 119.817 9.51968 121.496 11.5924 121.496C13.6651 121.496 15.3444 119.817 15.3444 117.744C15.3444 115.673 13.6651 113.992 11.5924 113.992Z" fill="#FFEBEC"/>
<path d="M169.325 6.64091L171.682 4.28443C172.499 3.46721 172.499 2.13091 171.682 1.31369C170.863 0.496462 169.527 0.496462 168.711 1.31369L166.355 3.67017L163.996 1.31369C163.181 0.496462 161.843 0.496462 161.027 1.31369C160.21 2.13091 160.21 3.46721 161.027 4.28443L163.382 6.64091L161.027 8.99739C160.21 9.81462 160.21 11.1509 161.027 11.9681C161.843 12.7854 163.181 12.7854 163.996 11.9681L166.355 9.61166L168.711 11.9681C169.527 12.7854 170.863 12.7854 171.682 11.9681C172.499 11.1509 172.499 9.81462 171.682 8.99739L169.325 6.64091Z" fill="#FFEBEC"/>
<path d="M8.91089 77.8548L11.2674 75.4983C12.0846 74.6811 12.0846 73.3448 11.2674 72.5276C10.4501 71.7121 9.11385 71.7121 8.29662 72.5276L5.94014 74.884L3.58366 72.5276C2.76823 71.7121 1.43014 71.7121 0.612918 72.5276C-0.204306 73.3448 -0.204306 74.6811 0.612918 75.4983L2.9694 77.8548L0.612918 80.2113C-0.204306 81.0285 -0.204306 82.3648 0.612918 83.182C1.43014 83.9992 2.76823 83.9992 3.58366 83.182L5.94014 80.8255L8.29662 83.182C9.11385 83.9992 10.4501 83.9992 11.2674 83.182C12.0846 82.3648 12.0846 81.0285 11.2674 80.2113L8.91089 77.8548Z" fill="#FFEBEC"/>
<path d="M286.852 221.753L288.848 219.757C289.539 219.066 289.539 217.934 288.848 217.241C288.156 216.549 287.025 216.549 286.333 217.241L284.338 219.238L282.341 217.241C281.649 216.549 280.518 216.549 279.824 217.241C279.133 217.934 279.133 219.066 279.824 219.757L281.82 221.753L279.824 223.748C279.133 224.442 279.133 225.573 279.824 226.265C280.518 226.956 281.649 226.956 282.341 226.265L284.338 224.269L286.333 226.265C287.025 226.956 288.156 226.956 288.848 226.265C289.539 225.573 289.539 224.442 288.848 223.748L286.852 221.753Z" fill="#FFEBEC"/>
<defs>
<linearGradient id="paint0_linear_304_3413" x1="55.9556" y1="89.0137" x2="55.9556" y2="8.23419" gradientUnits="userSpaceOnUse">
<stop stop-color="#F2763F"/>
<stop offset="1" stop-color="#FF1E22"/>
</linearGradient>
<linearGradient id="paint1_linear_304_3413" x1="133.156" y1="135.887" x2="133.156" y2="95.9936" gradientUnits="userSpaceOnUse">
<stop stop-color="#F2763F"/>
<stop offset="1" stop-color="#FF1E22"/>
</linearGradient>
<linearGradient id="paint2_linear_304_3413" x1="160.286" y1="266.313" x2="160.286" y2="178.574" gradientUnits="userSpaceOnUse">
<stop stop-color="#F2763F"/>
<stop offset="1" stop-color="#FF1E22"/>
</linearGradient>
<linearGradient id="paint3_linear_304_3413" x1="10.6946" y1="59.084" x2="10.6946" y2="29.5881" gradientUnits="userSpaceOnUse">
<stop stop-color="#F2763F"/>
<stop offset="1" stop-color="#FF1E22"/>
</linearGradient>
</defs>
</svg>
