<svg xmlns="http://www.w3.org/2000/svg" width="72" height="40" viewBox="3 7 18 10"><path d="M7 9V7h14v2H7Zm0 4v-2h14v2H7Zm0 4v-2h14v2H7ZM4 9a.965.965 0 0 1-.712-.288A.965.965 0 0 1 3 8c0-.283.096-.521.288-.713A.967.967 0 0 1 4 7a.97.97 0 0 1 .713.287A.97.97 0 0 1 5 8c0 .283-.096.52-.287.712A.968.968 0 0 1 4 9Zm0 4a.965.965 0 0 1-.712-.288A.965.965 0 0 1 3 12c0-.283.096-.521.288-.713A.967.967 0 0 1 4 11a.97.97 0 0 1 .713.287A.97.97 0 0 1 5 12c0 .283-.096.52-.287.712A.968.968 0 0 1 4 13Zm0 4a.965.965 0 0 1-.712-.288A.965.965 0 0 1 3 16c0-.283.096-.521.288-.713A.967.967 0 0 1 4 15a.97.97 0 0 1 .713.287A.97.97 0 0 1 5 16c0 .283-.096.52-.287.712A.968.968 0 0 1 4 17Z" fill="#3b4044" fill-rule="evenodd" data-name="list_FILL0_wght400_GRAD0_opsz24"/></svg>