<svg width="158" height="169" viewBox="0 0 158 169" fill="none" xmlns="http://www.w3.org/2000/svg">
<path d="M158 69.8721C158 105.417 100.033 168.351 64.4423 168.351C28.8518 168.351 0 139.536 0 103.991C0 68.4457 28.8518 39.6307 64.4423 39.6307C100.033 39.6307 158 34.3271 158 69.8721Z" fill="#FFEBEC"/>
<g clip-path="url(#clip0_304_3496)">
<path d="M8.48668 109.537C58.8876 86.4166 162.077 40.4347 148.028 49.8981" stroke="white" stroke-opacity="0.75"/>
<path d="M11.9271 128.645C62.328 105.525 165.518 59.5431 151.468 69.0065" stroke="white"/>
<path d="M128.925 59.1826L119.894 58.8172L120.381 46.7751C121.321 23.535 103.179 3.86321 79.939 2.92292C56.6987 1.98263 37.0271 20.1246 36.0869 43.3646L35.5996 55.4067L26.5681 55.0413C24.9041 54.974 23.5031 56.266 23.4357 57.9301L20.3907 133.193C20.122 139.834 25.304 145.453 31.9456 145.722L116.24 149.132C122.881 149.401 128.5 144.219 128.769 137.577L131.814 62.315C131.881 60.6509 130.589 59.2499 128.925 59.1826ZM101.83 58.0864L53.6627 56.1375L54.1499 44.0954C54.6872 30.8157 65.9285 20.4486 79.2082 20.9859C92.4879 21.5232 102.855 32.7646 102.318 46.0443L101.83 58.0864Z" fill="#303C42"/>
<path d="M42.1072 43.6084C42.9132 23.6875 59.7739 8.13807 79.6949 8.94406C99.6158 9.75005 115.165 26.6107 114.359 46.5317L113.872 58.5738L107.851 58.3302L108.338 46.2881C109.01 29.689 96.0503 15.6366 79.4512 14.965C62.8522 14.2934 48.7997 27.2533 48.1281 43.852L47.6409 55.8941L41.62 55.6505L42.1072 43.6084Z" fill="#F2F2F2"/>
<path d="M122.748 137.334C122.613 140.653 119.802 143.246 116.483 143.112L32.189 139.701C28.8699 139.567 26.2774 136.756 26.4117 133.437L29.335 61.1846L125.671 65.0823L122.748 137.334Z" fill="url(#paint0_linear_304_3496)"/>
<path opacity="0.2" d="M38.4528 133.924L41.3761 61.6718L29.334 61.1846L26.4107 133.437C26.2764 136.756 28.8689 139.567 32.188 139.701L42.725 140.127C40.2356 140.027 38.3185 137.243 38.4528 133.924Z" fill="white"/>
<path opacity="0.1" d="M113.629 64.5948L110.705 136.847C110.571 140.166 108.435 142.786 105.946 142.685L116.483 143.111C119.802 143.246 122.613 140.653 122.747 137.334L125.67 65.082L113.629 64.5948Z" fill="black"/>
<path d="M68.778 102.635L66.1879 119.636C66.0595 120.482 66.2982 121.345 66.8428 122.007C67.3874 122.667 68.19 123.065 69.0454 123.1L81.0875 123.587C81.943 123.622 82.7751 123.29 83.3713 122.675C83.9675 122.061 84.2755 121.219 84.2156 120.365L83.0074 103.21C86.1821 101.092 88.169 97.6181 88.3265 93.7255C88.5952 87.0843 83.4131 81.4649 76.7716 81.1962C70.1301 80.9275 64.511 86.1098 64.2423 92.7511C64.0848 96.6437 65.7848 100.267 68.778 102.635Z" fill="#303C42"/>
<path d="M76.528 87.2172C79.847 87.3515 82.4395 90.1627 82.3053 93.4817C82.2119 95.7896 80.817 97.8033 78.6648 98.741C77.4926 99.253 76.7703 100.443 76.8601 101.716L77.9677 117.43L72.6524 117.215L75.0259 101.642C75.2183 100.38 74.5944 99.1358 73.4674 98.5307C71.398 97.4222 70.1703 95.3024 70.2637 92.9945C70.3977 89.6755 73.2089 87.0829 76.528 87.2172Z" fill="#5C6671"/>
<path opacity="0.1" d="M73.718 98.7888C73.346 97.9636 73.1138 97.0719 73.152 96.1269C73.2863 92.8079 76.0975 90.2154 79.4165 90.3496C80.2971 90.3853 81.111 90.6299 81.8519 91.0017C80.9912 88.8732 78.9665 87.3159 76.5277 87.2172C73.2087 87.0829 70.3975 89.6755 70.2632 92.9945C70.1699 95.3024 71.3975 97.4222 73.4669 98.5307C73.5782 98.5906 73.6171 98.7174 73.718 98.7888Z" fill="black"/>
<path opacity="0.1" d="M77.341 108.537L76.8956 102.218C76.7047 102.039 76.5948 101.792 76.356 101.664C75.776 101.353 75.2824 100.948 74.845 100.497C74.9385 100.875 75.0868 101.241 75.0256 101.642L72.6522 117.215L75.9975 117.351L77.341 108.537Z" fill="black"/>
<path d="M128.925 59.1826L119.894 58.8172L120.381 46.7751C121.321 23.535 103.179 3.86321 79.939 2.92292C56.6987 1.98263 37.0271 20.1246 36.0869 43.3646L35.5996 55.4067L26.5681 55.0413C24.9041 54.974 23.5031 56.266 23.4357 57.9301L20.3907 133.193C20.122 139.834 25.304 145.453 31.9456 145.722L116.24 149.132C122.881 149.401 128.5 144.219 128.769 137.577L131.814 62.315C131.881 60.6509 130.589 59.2499 128.925 59.1826ZM101.83 58.0864L53.6627 56.1375L54.1499 44.0954C54.6872 30.8157 65.9285 20.4486 79.2082 20.9859C92.4879 21.5232 102.855 32.7646 102.318 46.0443L101.83 58.0864Z" fill="url(#paint1_linear_304_3496)"/>
<rect x="59.4624" y="80" width="32.686" height="52" transform="rotate(2.71434 59.4624 80)" fill="url(#paint2_linear_304_3496)"/>
<circle cx="54.0209" cy="100.021" r="3" transform="rotate(0.40133 54.0209 100.021)" fill="#3B464C"/>
<circle cx="69.0204" cy="100.126" r="3" transform="rotate(0.40133 69.0204 100.126)" fill="#3B464C"/>
<circle cx="83.5166" cy="100.727" r="2.5" transform="rotate(0.40133 83.5166 100.727)" fill="#3B464C"/>
<circle cx="96.5166" cy="100.818" r="2.5" transform="rotate(0.40133 96.5166 100.818)" fill="#3B464C"/>
</g>
<defs>
<linearGradient id="paint0_linear_304_3496" x1="77.5029" y1="63.1334" x2="74.336" y2="141.406" gradientUnits="userSpaceOnUse">
<stop stop-color="#F2763F"/>
<stop offset="1" stop-color="#FF1E22"/>
</linearGradient>
<linearGradient id="paint1_linear_304_3496" x1="23.9938" y1="56.2391" x2="140.873" y2="116.609" gradientUnits="userSpaceOnUse">
<stop stop-color="white" stop-opacity="0.2"/>
<stop offset="1" stop-color="white" stop-opacity="0"/>
</linearGradient>
<linearGradient id="paint2_linear_304_3496" x1="75.8054" y1="80" x2="75.8054" y2="132" gradientUnits="userSpaceOnUse">
<stop stop-color="#F2763F"/>
<stop offset="1" stop-color="#FF1E22"/>
</linearGradient>
<clipPath id="clip0_304_3496">
<rect width="144.622" height="144.622" fill="white" transform="translate(7.68652) rotate(2.31689)"/>
</clipPath>
</defs>
</svg>
