<svg width="17" height="18" viewBox="0 0 17 18" fill="none" xmlns="http://www.w3.org/2000/svg">
<path d="M10.6243 9.2106C10.4365 9.2106 10.2563 9.28521 10.1235 9.418C9.99074 9.5508 9.91614 9.73091 9.91614 9.91871V12.7512C9.91591 12.9389 9.84124 13.1189 9.70849 13.2516C9.57574 13.3844 9.39576 13.459 9.20803 13.4593H7.08284V2.83245C7.08119 2.53625 6.98744 2.2479 6.81458 2.00737C6.64171 1.76683 6.3983 1.58604 6.11809 1.49004L5.90866 1.41966H9.20803C9.39576 1.41988 9.57574 1.49456 9.70849 1.62731C9.84124 1.76006 9.91591 1.94004 9.91614 2.12777V4.25296C9.91614 4.44076 9.99074 4.62088 10.1235 4.75367C10.2563 4.88647 10.4365 4.96107 10.6243 4.96107C10.8121 4.96107 10.9922 4.88647 11.125 4.75367C11.2578 4.62088 11.3324 4.44076 11.3324 4.25296V2.12777C11.3324 1.56404 11.1087 1.02336 10.7104 0.624422C10.3121 0.225486 9.77175 0.000909601 9.20803 0L1.5939 0C1.56839 0.00339664 1.54315 0.00855894 1.51836 0.0154497C1.48403 0.016308 1.45142 0 1.41622 0C1.23002 0.000225295 1.04568 0.0371245 0.873733 0.108591C0.701787 0.180057 0.545601 0.284691 0.414092 0.416519C0.282583 0.548346 0.178328 0.704785 0.107278 0.876904C0.0362283 1.04902 -0.000224528 1.23345 1.04048e-06 1.41966V14.1691C0.000756388 14.466 0.094096 14.7553 0.26702 14.9967C0.439945 15.2381 0.683844 15.4196 0.96475 15.5158L5.22715 16.9363C5.36943 16.9806 5.51762 17.0028 5.66661 17.0024C6.04208 17.002 6.40204 16.8526 6.66753 16.5871C6.93303 16.3216 7.08238 15.9616 7.08284 15.5862V14.8781H9.20803C9.77101 14.8765 10.3104 14.6518 10.7081 14.2533C11.1058 13.8549 11.3293 13.315 11.3298 12.752V9.91957C11.3298 9.73177 11.2552 9.55166 11.1224 9.41886C10.9896 9.28607 10.8095 9.21146 10.6217 9.21146L10.6243 9.2106Z" fill="#434040"/>
<path d="M16.7913 6.58532L13.9589 3.75287C13.8599 3.65367 13.7337 3.58607 13.5963 3.55863C13.4589 3.53119 13.3164 3.54514 13.1869 3.59872C13.0574 3.6523 12.9467 3.7431 12.8689 3.85962C12.791 3.97613 12.7495 4.11313 12.7495 4.25327V6.37847H9.91708C9.72928 6.37847 9.54916 6.45307 9.41636 6.58586C9.28356 6.71866 9.20898 6.89877 9.20898 7.08658C9.20898 7.27438 9.28356 7.45449 9.41636 7.58729C9.54916 7.72009 9.72928 7.79469 9.91708 7.79469H12.7495V9.91988C12.7493 10.0601 12.7907 10.1972 12.8685 10.3139C12.9463 10.4305 13.057 10.5214 13.1865 10.5751C13.316 10.6288 13.4586 10.6428 13.5961 10.6154C13.7336 10.588 13.8599 10.5204 13.9589 10.4211L16.7913 7.58869C16.8575 7.52296 16.91 7.4448 16.9458 7.3587C16.9816 7.2726 17.0001 7.18026 17.0001 7.08701C17.0001 6.99375 16.9816 6.90141 16.9458 6.81531C16.91 6.72921 16.8575 6.65105 16.7913 6.58532Z" fill="#434040"/>
</svg>
