<svg width="17" height="18" viewBox="0 0 17 18" fill="none" xmlns="http://www.w3.org/2000/svg">
<path d="M6.37575 8.29184C6.56355 8.29184 6.74366 8.21723 6.87646 8.08444C7.00925 7.95164 7.08386 7.77153 7.08386 7.58373V4.75128C7.08409 4.56355 7.15876 4.38357 7.29151 4.25082C7.42426 4.11807 7.60424 4.0434 7.79197 4.04317L9.91716 4.04317L9.91716 14.67C9.91881 14.9662 10.0126 15.2545 10.1854 15.4951C10.3583 15.7356 10.6017 15.9164 10.8819 16.0124L11.0913 16.0828H7.79197C7.60424 16.0826 7.42426 16.0079 7.29151 15.8751C7.15876 15.7424 7.08409 15.5624 7.08386 15.3747V13.2495C7.08386 13.0617 7.00925 12.8816 6.87646 12.7488C6.74366 12.616 6.56355 12.5414 6.37575 12.5414C6.18794 12.5414 6.00783 12.616 5.87504 12.7488C5.74224 12.8816 5.66764 13.0617 5.66764 13.2495V15.3747C5.66763 15.9384 5.89134 16.4791 6.28963 16.878C6.68792 17.277 7.22825 17.5015 7.79197 17.5024H15.4061C15.4316 17.499 15.4568 17.4939 15.4816 17.487C15.516 17.4861 15.5486 17.5024 15.5838 17.5024C15.77 17.5022 15.9543 17.4653 16.1263 17.3939C16.2982 17.3224 16.4544 17.2178 16.5859 17.0859C16.7174 16.9541 16.8217 16.7977 16.8927 16.6255C16.9638 16.4534 17.0002 16.269 17 16.0828V3.33334C16.9992 3.03641 16.9059 2.7471 16.733 2.50571C16.5601 2.26433 16.3162 2.08288 16.0353 1.98664L11.7728 0.566125C11.6306 0.521891 11.4824 0.499605 11.3334 0.500035C10.9579 0.500489 10.598 0.649844 10.3325 0.915339C10.067 1.18083 9.91762 1.54079 9.91716 1.91626V2.62437L7.79197 2.62437C7.22899 2.62596 6.68959 2.8506 6.2919 3.24909C5.89421 3.64758 5.67066 4.18744 5.67021 4.75042V7.58287C5.67021 7.77067 5.74481 7.95078 5.87761 8.08358C6.01041 8.21638 6.19052 8.29098 6.37832 8.29098L6.37575 8.29184Z" fill="#434040"/>
<path d="M0.208654 10.9171L3.04109 13.7496C3.14007 13.8488 3.26627 13.9164 3.40369 13.9438C3.54112 13.9713 3.68361 13.9573 3.8131 13.9037C3.94259 13.8501 4.05326 13.7593 4.13112 13.6428C4.20898 13.5263 4.2505 13.3893 4.25046 13.2492V11.124H7.08292C7.27072 11.124 7.45084 11.0494 7.58364 10.9166C7.71644 10.7838 7.79102 10.6037 7.79102 10.4159C7.79102 10.2281 7.71644 10.0479 7.58364 9.91515C7.45084 9.78235 7.27072 9.70776 7.08292 9.70776H4.25046L4.25046 7.58256C4.25067 7.44235 4.20928 7.30523 4.13148 7.18858C4.05369 7.07193 3.94302 6.981 3.81349 6.92731C3.68397 6.87363 3.54141 6.85961 3.4039 6.88702C3.2664 6.91443 3.14013 6.98205 3.04109 7.0813L0.208654 9.91375C0.142504 9.97948 0.0900135 10.0576 0.0541898 10.1437C0.0183661 10.2298 -8.37077e-05 10.3222 -8.37077e-05 10.4154C-8.37077e-05 10.5087 0.0183661 10.601 0.0541898 10.6871C0.0900135 10.7732 0.142504 10.8514 0.208654 10.9171V10.9171Z" fill="#434040"/>
</svg>
