<svg width="35" height="36" viewBox="0 0 35 36" fill="none" xmlns="http://www.w3.org/2000/svg">
<path fill-rule="evenodd" clip-rule="evenodd" d="M17.5 35.3838C7.83846 35.3838 0 27.6597 0 18.1236C0 8.58737 7.83136 0.863281 17.5 0.863281C27.1686 0.863281 35 8.58737 35 18.1236C35 27.6597 27.1686 35.3838 17.5 35.3838ZM8.06546 20.6353C7.93068 20.9781 7.98034 21.5098 8.17896 21.8247L10.5908 25.6378C10.7894 25.9526 11.2505 26.1835 11.6265 26.1555L17.1879 25.7707C17.5638 25.7427 17.9824 25.4489 18.1384 25.113L20.2027 20.4954C20.3517 20.1595 20.2878 19.6488 20.0608 19.3549L16.5353 14.8282C16.3083 14.5344 15.8188 14.3385 15.4499 14.3804L10.9029 14.9681C10.534 15.0171 10.1226 15.332 9.98783 15.6748L8.05836 20.6283L8.06546 20.6353ZM17.4929 14.0936L21.0468 18.6483C21.2738 18.9421 21.7633 19.159 22.1321 19.131L26.6792 18.8232C27.0551 18.7952 27.4666 18.5014 27.6013 18.1585L29.3251 13.8557C29.467 13.5129 29.4031 12.9882 29.1832 12.6873L26.1968 8.46844C25.9769 8.16059 25.5087 7.92971 25.1328 7.9367L20.0182 8.06264C19.6494 8.06964 19.2309 8.35649 19.089 8.69932L17.3297 12.9532C17.1879 13.296 17.2588 13.8067 17.4858 14.1006L17.4929 14.0936ZM2.71685 20.7892C2.82326 21.139 3.20633 21.3699 3.5752 21.2999L6.08633 20.8172C6.4552 20.7472 6.85954 20.4114 6.99432 20.0686L9.00183 14.8982C9.13661 14.5554 9.1295 14.0026 8.98763 13.6598L7.54762 10.2106C7.40575 9.86773 6.98722 9.62985 6.61835 9.67882L4.80238 9.9167C4.43352 9.96568 4.02209 10.2805 3.88022 10.6233L1.61025 16.2065C1.58187 16.4304 1.56059 16.6473 1.54641 16.8712L2.72395 20.7892H2.71685ZM21.9548 29.6257L18.8123 27.2959C18.5144 27.079 17.9682 26.9181 17.5993 26.9461L11.7683 27.3519C11.3924 27.3799 11.0022 27.6807 10.8887 28.0305L10.3212 29.7867C10.2077 30.1365 10.3212 30.6332 10.5837 30.8991L12.882 33.2499C14.3433 33.6837 15.8826 33.9146 17.4858 33.9146C18.5286 33.9146 19.55 33.8166 20.5361 33.6277L22.1605 30.6122C22.3308 30.2904 22.2386 29.8426 21.9406 29.6257H21.9548ZM24.5936 29.5698C24.2957 29.7937 23.9126 30.2344 23.7353 30.5633L22.3166 33.1939C25.9343 32.0675 28.9988 29.7097 30.9992 26.6103L29.5805 26.4214C29.2116 26.3724 28.6654 26.5123 28.3675 26.7362L24.5865 29.5628L24.5936 29.5698ZM31.2829 13.9956C30.9141 13.9467 30.5026 14.1845 30.3678 14.5274L28.5448 19.0821C28.41 19.4249 28.3603 19.9986 28.4313 20.3554L29.2967 24.5463C29.3677 24.9031 29.7294 25.239 30.1054 25.2879L30.9992 25.4069C31.368 25.4558 31.6731 25.4978 31.6731 25.4978C32.8506 23.3009 33.5174 20.7962 33.5174 18.1375C33.5174 16.7942 33.3472 15.4859 33.0279 14.2335L31.2971 14.0026L31.2829 13.9956ZM25.7995 6.08264L26.1542 4.84427C23.6573 3.25607 20.685 2.33953 17.4929 2.33953C16.5211 2.33953 15.5705 2.42349 14.6413 2.59141L14.1731 3.85777C14.0454 4.20059 14.2156 4.61339 14.549 4.7743L18.2732 6.59338C18.6066 6.7543 19.1812 6.88024 19.5571 6.87324L24.9412 6.74031C25.3172 6.73331 25.7002 6.43946 25.7995 6.08264ZM4.62504 8.7343C4.62504 8.7343 4.92298 8.69232 5.29185 8.65034L7.29936 8.39147C7.66823 8.3425 8.21443 8.12561 8.51236 7.90872L11.8889 5.45996C12.1869 5.24307 12.5345 4.7883 12.6621 4.43847L13.2296 2.89925C9.73956 3.85077 6.72475 5.93572 4.61794 8.7273L4.62504 8.7343ZM7.49798 30.5982C7.49798 30.5982 8.49107 31.6547 10.0517 32.3054L9.38487 31.4938C9.15078 31.2069 8.66132 30.8991 8.30664 30.8081L7.49798 30.5982Z" fill="#0F2941"/>
</svg>
